<svg width="32" height="24" viewBox="0 0 32 24" fill="none" xmlns="http://www.w3.org/2000/svg">
  <g clip-path="url(#clip0)" fill="#fff">
    <path d="M9.72 9.52c.16 0 .27-.04.4-.09l3.94-2.23c.4-.2.52-.74.32-1.16-.2-.41-.71-.54-1.1-.33L9.35 7.94c-.4.13-.59.54-.51.96.12.41.51.7.9.62h-.03zm6 3.27c.12 0 .28-.05.4-.13L22.4 9.1a.8.8 0 0 0 .4-.7c0-.33-.12-.62-.36-.74a.85.85 0 0 0-.83-.05l-6.28 3.56a.86.86 0 0 0-.48 1c.08.4.48.66.87.62z"/>
    <path d="M32 8.11c-.16-.5-.51-.91-.95-1.12l-6.8-3.8a3.85 3.85 0 0 0-3.55 0l-.55.29-4.7-2.65a3.85 3.85 0 0 0-3.56 0L1 6.99C.43 7.24.08 7.78 0 8.4v6.29c0 .33.16.62.43.74l13.83 7.87c1.1.58 2.45.58 3.56 0l13.78-7.95c.28-.12.44-.41.44-.74V8.4c0-.08-.04-.2-.04-.29zm-30.22.37l10.86-6.16a2.54 2.54 0 0 1 2.06 0l5.45 3.06 1.3-.75a2.54 2.54 0 0 1 2.06 0l6.75 3.81.08.04-.08.04-13.2 7.45c-.66.33-1.42.33-2.05 0L1.78 8.52l-.08-.04h.08zm15.25 13.33c-.63.29-1.39.29-2.02 0L1.62 14.19v-3.8l12.6 7.11c1.1.58 2.45.58 3.56 0l12.64-7.11v3.72l-13.4 7.7z"/>
  </g>
  <defs>
    <clipPath id="clip0">
      <path fill="#fff" d="M0 0h32v24H0z"/>
    </clipPath>
  </defs>
</svg>
