<svg width="30" height="32" viewBox="0 0 30 32" fill="none" xmlns="http://www.w3.org/2000/svg">
  <path d="M10.23 22.23a8.29 8.29 0 0 1-2.84-6.28c0-2.5 1.05-4.68 2.74-6.28a3.36 3.36 0 0 0 0-4.98 3.85 3.85 0 0 0-5.28 0A15.8 15.8 0 0 0 0 15.95c0 4.39 1.9 8.37 4.96 11.27a3.85 3.85 0 0 0 5.27 0 3.53 3.53 0 0 0 0-4.99z" fill="#FAE501"/>
  <path d="M10.23 9.67c1.7-1.7 4.01-2.7 6.65-2.7 2.64 0 4.96 1 6.65 2.6a3.85 3.85 0 0 0 5.27 0 3.36 3.36 0 0 0 0-4.98A17.72 17.72 0 0 0 16.88 0C12.24 0 8.02 1.8 4.96 4.69a3.36 3.36 0 0 0 0 4.98 4.07 4.07 0 0 0 5.27 0z" fill="#4FB5E1"/>
  <path d="M23.53 22.23c-1.69 1.7-4.01 2.7-6.65 2.7a9.6 9.6 0 0 1-6.65-2.6 3.85 3.85 0 0 0-5.27 0 3.36 3.36 0 0 0 0 4.99 17.72 17.72 0 0 0 11.92 4.58c4.64 0 8.86-1.8 11.92-4.68a3.36 3.36 0 0 0 0-4.99 4.07 4.07 0 0 0-5.27 0z" fill="#F05751"/>
  <path d="M7.6 10.67a3.6 3.6 0 0 0 3.69-3.5 3.6 3.6 0 0 0-3.7-3.48A3.6 3.6 0 0 0 3.9 7.18a3.6 3.6 0 0 0 3.7 3.49z" fill="#0681B6"/>
  <path d="M7.6 28.21a3.6 3.6 0 0 0 3.69-3.49 3.6 3.6 0 0 0-3.7-3.49 3.6 3.6 0 0 0-3.69 3.5 3.6 3.6 0 0 0 3.7 3.48z" fill="#CD4739"/>
</svg>
