<svg xmlns="http://www.w3.org/2000/svg" width="43" height="48">
  <g fill="none" fill-rule="evenodd">
    <path fill="#FF4088" d="M41.08 30.79V15.66a5.55 5.55 0 0 0-2.73-4.78l-14-8.23a6.51 6.51 0 0 0-6.72.07L5.19 10.4a7.17 7.17 0 0 0-3.4 6.1v15.48a6.94 6.94 0 0 0 3.44 6l12.95 7.57a5.64 5.64 0 0 0 5.6.06l14.34-8a5.78 5.78 0 0 0 2.96-5.04V30.8z"/>
    <path fill="#C9177E" d="M21.06.08h.38l.03.01h.13l.04.01h.1l.03.01h.1l.04.01h.07l.03.01h.07l.03.01h.03l.04.01h.03l.04.01h.03l.03.01h.04l.03.01h.03l.04.01h.03l.03.01h.04l.03.02h.07l.03.01.03.01h.04l.03.02h.03l.04.01h.03l.03.02h.04l.03.01.03.01h.04v.01h.03l.03.02h.03l.04.01.03.01.04.01.03.01.03.01.04.01.03.01.03.01.04.01.03.01.03.01.03.01.04.01.03.01.03.01.04.01.03.02h.03l.03.02h.03v.01l.04.01.03.01.03.02h.04l.03.02.03.01.03.02h.03l.04.02.03.01.03.02.04.01.03.02h.03l.03.02.03.02h.03v.01l.04.01.03.02.03.01.03.02.03.01.03.02.03.01.04.02.03.01.03.02.03.01.03.02.03.01.03.02.04.02.03.01.03.02.03.01.03.02.03.02.03.02.03.01.03.02.03.02.03.02.03.02 14.02 8.23.02.02.03.01.03.02.02.01.03.02.02.01.03.02.02.01.03.02.02.02.03.01.02.02.03.02.02.01.03.02.02.01.02.02.03.02.02.01.02.02.03.02.02.01.03.02.02.02.02.01.03.02.02.02.02.01.03.02.02.02.03.02.02.02.02.02.03.02.04.03.05.04.04.04.05.03.04.04.05.04.04.04.04.04.05.04.04.03.04.04.04.04.05.04.04.05.04.04.04.04.04.04.04.04.04.05.04.04.04.04.03.05.04.04.04.04.04.05.04.04.03.05.04.04.04.05.03.04.03.05.04.04v.01l.03.04.04.05.03.05.04.04.03.05.03.05.03.05.03.05.04.04.03.05.03.05.03.05.03.05.03.05.03.05.03.05.03.05.02.05.03.05.03.05.03.06.02.05.03.05.02.05.03.05.02.06.03.05.02.05.02.06.03.05.02.05.02.06.02.05.02.05v.01l.02.05.02.05.02.06.02.05.02.06.02.05.02.06.01.05.02.06.02.05.01.06.02.05v.01l.02.05.01.06.02.05v.06h.01l.01.06.02.05v.01l.01.05.01.06.01.06.01.05.02.06v.06l.02.05v.07l.01.05v.01l.01.05v.06l.01.03v.03l.01.03v.06l.01.03v.06l.01.03V15l.01.03v.12l.01.03V33.08l-.01.04v.09l-.01.03v.06l-.01.03v.06l-.01.03v.07l-.01.03v.03h-.01v.06l-.01.03v.03l-.01.03v.03l-.01.03v.03l-.01.03v.03l-.01.03v.03l-.01.03v.03l-.01.03-.01.03v.03l-.01.03v.03l-.01.03-.01.03v.03l-.01.03-.01.03v.03l-.01.03-.01.03-.01.03v.03l-.02.03v.03l-.01.03-.01.03v.03l-.02.03v.03l-.01.02-.01.03-.01.03-.01.03-.01.03-.01.03-.01.03-.01.03-.01.03-.01.03-.01.03-.01.03-.01.03-.01.03-.01.03-.01.02-.01.03-.01.03-.01.03-.01.03-.01.03-.01.03-.01.03-.02.02v.03l-.02.03-.01.03-.01.03-.01.03-.02.02v.03h-.01l-.01.03-.01.03-.02.03v.02h-.01l-.01.03-.01.03-.02.03-.01.02-.01.03-.02.03v.02h-.01l-.01.03-.02.03-.01.03-.01.02-.02.03-.01.03-.01.03-.02.02-.01.03-.02.03-.01.03-.02.02-.01.03-.02.02-.01.03-.02.03-.01.02-.02.03-.01.03-.02.02-.01.03-.02.03-.01.02-.02.03-.02.02-.01.03-.02.02-.02.03-.01.03-.02.02-.02.03-.01.02-.02.03-.02.02-.02.03-.01.02-.02.02-.02.03-.01.02-.02.03-.02.02-.02.03-.02.02-.01.03-.02.02-.02.03-.02.02-.02.02-.02.03-.01.02-.02.03-.02.02-.02.02-.02.03-.02.02-.02.02-.02.03-.02.02-.02.02-.02.03-.02.02-.02.03-.02.02-.02.02-.02.03-.02.02-.02.02-.02.03-.02.02-.02.02-.02.02-.02.03-.03.02-.02.02-.02.02-.02.03-.02.02-.02.02-.02.02-.02.02-.03.03-.02.02-.02.02-.02.02-.03.02-.02.02-.02.02-.02.02-.03.03-.02.02-.02.02-.02.02-.03.02-.02.02-.02.02-.03.02-.02.02-.03.02-.02.02-.02.02-.03.02-.02.02-.02.02-.03.02-.02.02-.03.02-.02.02-.03.02-.02.02-.03.02-.02.02-.02.02-.03.02-.02.01-.03.02-.02.02-.03.02-.02.01-.03.02-.02.02-.03.02-.03.02-.02.02-.03.01-.03.02-.02.02-.03.02-.02.02-.03.01-.03.02-.02.01-.03.02-.02.02-.03.01-.03.02-.02.02-.03.02-.03.01-.03.02-.02.01-.03.02-.03.02-.03.01-.02.02-.03.01-.03.02-14.34 7.99-.02.01-.03.02-.03.01-.03.02-.02.01-.03.01-.03.02-.02.01-.03.02h-.02l-.03.02-.03.02h-.02l-.03.02-.03.01-.02.02h-.03v.01l-.03.01-.02.01-.03.02-.03.01-.02.01-.03.01-.03.02h-.02l-.03.02-.03.01-.03.01-.02.01-.03.02h-.03l-.03.02h-.02l-.03.02h-.03v.01l-.03.01-.03.01-.03.01-.02.01-.03.01-.03.01-.03.01-.03.01-.02.01h-.03v.01h-.03l-.03.02h-.02l-.03.01-.03.01-.03.01-.03.01-.05.02h-.01l-.05.02-.06.01-.05.02h-.01l-.05.01-.06.02-.06.01-.05.02H22.64l-.06.02-.06.01-.06.02H22.4l-.05.02h-.06l-.06.02H22.17l-.05.02h-.06l-.06.01-.06.01-.06.01H21.82l-.05.01H21.7l-.05.01h-.06l-.06.01h-.06l-.06.01H20.56l-.06-.01h-.06l-.06-.01h-.06v-.01h-.06l-.05-.01h-.07l-.05-.01-.06-.01-.06-.01-.06-.01H19.85l-.05-.02h-.06l-.05-.02h-.01l-.05-.01-.06-.01-.06-.01-.05-.01h-.01l-.05-.02-.06-.01-.06-.02-.05-.01h-.01l-.05-.02-.06-.01-.05-.02h-.01l-.05-.02h-.01l-.05-.01-.06-.02-.05-.02h-.01l-.05-.02h-.03l-.03-.01-.03-.01-.02-.01-.03-.01-.03-.01-.03-.01-.03-.01-.02-.01-.03-.01-.03-.02h-.03l-.03-.02h-.02v-.01l-.03-.01-.03-.01-.03-.01-.02-.01-.03-.01-.03-.02h-.03l-.03-.02-.03-.01-.02-.01-.03-.01-.03-.02h-.02v-.01l-.03-.01-.03-.01-.03-.02h-.02v-.01l-.03-.01-.03-.01-.02-.02-.03-.01-.03-.01-.02-.02-.03-.01-.03-.02-.03-.01-.02-.01-.03-.02-.03-.01-.02-.02-.03-.01-.02-.02-.03-.01-.03-.01-.03-.02-.02-.01-.03-.02-.03-.01-12.96-7.57-.03-.02-.03-.02-.03-.01-.03-.02-.03-.02-.03-.02-.03-.02-.03-.02-.04-.02-.02-.02-.03-.01-.03-.02-.03-.02-.03-.03-.03-.02-.03-.02-.03-.02-.03-.02-.02-.02-.04-.02-.02-.02-.03-.02-.03-.02-.03-.02-.03-.02-.03-.03-.03-.02-.02-.02-.03-.02-.03-.02-.03-.02-.03-.03-.02-.02-.03-.02-.03-.02-.03-.02-.02-.03-.03-.02-.03-.02-.03-.02-.02-.02-.03-.03-.03-.02-.02-.02-.03-.03-.03-.02-.02-.02-.03-.02-.02-.03-.03-.02-.03-.02-.02-.03-.03-.02-.02-.03-.03-.02-.03-.02-.02-.03-.03-.02-.02-.03-.03-.02-.02-.03-.03-.02-.02-.03L2.6 38l-.02-.03-.03-.02-.02-.03-.02-.02-.03-.03-.02-.02-.03-.03-.02-.02-.02-.03-.03-.03-.02-.02-.02-.03-.03-.02-.02-.03-.02-.03-.03-.02-.02-.03-.02-.03-.03-.02-.02-.03-.02-.03-.02-.02-.03-.03-.02-.02-.02-.03L2 37.3l-.03-.03-.02-.02-.02-.03-.02-.03-.02-.03-.02-.02-.02-.03-.02-.03-.03-.03-.02-.02-.02-.03-.02-.03-.02-.03-.02-.02-.02-.03-.02-.03-.02-.03-.02-.03-.02-.03-.02-.03-.02-.02-.02-.03-.02-.03-.01-.03-.02-.03-.02-.03-.02-.03-.02-.03-.02-.03-.02-.03-.02-.02-.01-.03-.02-.03-.02-.03-.02-.03-.02-.03-.01-.03-.02-.03-.02-.03-.02-.03-.02-.03-.01-.03-.02-.03-.01-.03-.02-.04-.02-.03-.01-.03-.02-.03-.01-.03-.02-.03-.02-.03-.01-.03-.02-.03-.01-.04-.02-.02-.01-.04-.02-.03-.01-.03-.02-.03-.01-.03-.02-.03-.01-.03-.02-.03v-.04H.83l-.01-.03-.02-.03-.01-.03-.02-.03v-.03H.76l-.01-.03-.02-.03v-.04l-.02-.03-.01-.03-.02-.03v-.03H.67L.67 35l-.01-.03-.02-.03v-.04H.62l-.01-.03-.01-.03-.01-.03-.01-.04-.02-.03v-.03l-.02-.04-.01-.03-.01-.03-.01-.04-.01-.03-.02-.03v-.04l-.02-.03v-.03l-.02-.04v-.03l-.02-.03v-.04l-.02-.03v-.03l-.01-.04-.01-.03-.01-.03v-.04H.36v-.03l-.02-.03v-.04l-.01-.03v-.03H.32v-.04l-.01-.03-.01-.03-.01-.04v-.03l-.02-.03v-.04l-.01-.03v-.03l-.01-.04v-.04H.24v-.03l-.01-.04-.01-.03v-.04l-.01-.03v-.04L.2 33.3v-.03l-.01-.03v-.04l-.01-.03v-.04l-.01-.03v-.03l-.01-.04V33l-.01-.04v-.07H.14v-.07l-.01-.04v-.07H.12v-.07l-.01-.03V32.5l-.01-.03v-.25l-.01-.04V16.06l.01-.04v-.14l.01-.04v-.1l.01-.04v-.07l.01-.03v-.04l.01-.04v-.06l.01-.04v-.03l.01-.04v-.04l.01-.03v-.07l.01-.04v-.03H.2v-.04l.01-.03v-.04L.23 15l.01-.04v-.03l.01-.03v-.04l.02-.03v-.04l.01-.03v-.03l.02-.04v-.07l.01-.03.01-.03.01-.04v-.03l.02-.04v-.03l.01-.04.01-.03v-.03l.02-.04v-.03l.02-.04v-.03l.01-.03.01-.04.01-.03.01-.04.01-.03.01-.03.01-.04.01-.03.01-.03.01-.03v-.01l.01-.03.02-.03v-.04l.02-.03v-.03l.02-.03v-.04l.02-.03.01-.03.01-.04.01-.03.02-.03v-.03l.02-.03.01-.04.01-.03.02-.03.01-.03.01-.04.02-.03.01-.03.02-.04v-.03h.01l.01-.03.02-.04V13h.01l.01-.03.02-.03.01-.03.02-.04.01-.03.01-.03.02-.03.01-.03.02-.03.01-.03.02-.03.01-.04.02-.03.01-.03.02-.03.01-.03.02-.03.02-.03.01-.03.02-.03.02-.03.01-.03.02-.03.01-.03.02-.04.02-.02.01-.03.02-.04.02-.03.02-.02.01-.03.02-.03.02-.03.02-.03.02-.03.01-.03.02-.03.02-.03.02-.03.02-.03.02-.03.02-.03.01-.03.02-.03.02-.03.02-.02.02-.03.02-.03.02-.03.02-.03.02-.03.02-.03.02-.03.02-.02.02-.03.02-.03.02-.03.02-.03.02-.02.02-.03.02-.03.02-.03.02-.02.03-.03.02-.03.02-.02.02-.03.03-.03.02-.03.02-.02.02-.03.02-.03.03-.02.02-.03.02-.03.02-.02.03-.03.02-.03.02-.03.02-.02.03-.03.02-.02.02-.03.03-.03.02-.02.02-.03.03-.02.02-.03.02-.03.03-.02.03-.03.02-.02.02-.03.03-.02.02-.03.03-.02.03-.03.02-.02.02-.03.03-.02.02-.02.03-.03.02-.02.03-.03.03-.02.02-.03.03-.02.02-.02.03-.03.03-.02.02-.02.03-.03.02-.02.03-.02.03-.03.03-.02.02-.02.03-.02.03-.03.02-.02.03-.02.03-.02.03-.02.02-.03.03-.02.03-.02.03-.02.03-.02.02-.02.03-.03.03-.02.03-.02.03-.02.02-.02.03-.02.03-.02.03-.02.03-.02.03-.03.03-.02.03-.02.03-.02.03-.02.03-.01.02-.02.03-.02.03-.03.03-.01.04-.02.02-.02.03-.02.03-.02.03-.02.04-.02 12.43-7.67.03-.01.03-.02.03-.02.03-.02.03-.02.03-.01.03-.02.03-.02.03-.02.03-.01.03-.02.04-.02.03-.01.03-.02.03-.02.03-.02.03-.01.03-.02.03-.01.04-.02.02-.02.04-.01.03-.02.03-.01.03-.01.03-.02.04-.02.03-.01.03-.01.03-.02.03-.01.03-.02.04-.01.03-.01.03-.02.03-.01.03-.02h.04V.7l.03-.01.03-.02h.04V.66l.03-.01.03-.01.03-.02h.04V.61l.03-.01.03-.01.04-.01.03-.02h.03l.03-.02.04-.01.03-.01.03-.01.04-.01.03-.01.03-.02h.04l.03-.02h.03l.04-.01.03-.01.03-.01.03-.01.04-.01.03-.01.03-.01.04-.01.03-.01.03-.01H19l.04-.02h.03l.04-.01.03-.01h.04L19.2.3l.03-.01.04-.01h.03l.03-.01.03-.01h.04l.03-.01.03-.01.04-.01h.03l.04-.01h.03l.04-.01h.03V.2h.03l.04-.01h.03l.04-.01h.03l.03-.01h.04l.03-.01h.07V.15h.07l.03-.01h.07l.04-.01h.06l.04-.01h.07l.03-.01h.1l.04-.01H20.78l.03-.01h.25V.07zm-.03 3.34h-.18l-.02.01H20.7l-.03.01h-.06l-.02.01h-.06l-.02.01h-.06l-.02.01h-.06l-.02.01h-.04l-.02.01h-.04l-.02.01h-.02l-.02.01h-.04l-.02.01h-.04l-.02.01h-.04l-.02.01H20l-.02.01h-.02l-.02.01h-.02l-.02.01h-.02l-.02.01h-.02l-.02.01h-.02l-.02.01h-.02l-.02.01h-.02l-.02.01-.02.01h-.02l-.02.01h-.02l-.02.01-.02.01h-.01l-.02.01-.02.01h-.02l-.02.01-.02.01h-.02l-.02.01h-.02l-.02.02h-.02l-.02.01h-.02l-.02.02h-.02l-.02.01h-.02l-.02.02h-.02l-.02.01-.01.01h-.02l-.02.02h-.02l-.02.01-.02.01-.02.01-.02.01h-.02l-.01.02h-.02l-.02.01-.02.01-.02.01-.02.01-.02.01-.02.01h-.01l-.02.02h-.02L18.8 4h-.02l-.02.02h-.02l-.01.02h-.02l-.02.02h-.02l-.02.02h-.01l-.02.02-.02.01-.02.01-.02.01-.02.01-.01.01-.02.02h-.02L6.07 11.83l-.02.02h-.02l-.02.02-.02.01-.02.02h-.02l-.02.02-.01.01-.02.02h-.02l-.02.02-.02.01-.02.02h-.01l-.02.02-.02.01-.02.02h-.02l-.01.02-.02.01-.02.01-.01.02-.02.01-.02.01-.02.02-.01.01-.02.01-.02.02-.02.01-.01.02H5.5l-.02.02-.01.02-.02.01-.02.01-.01.02-.02.01-.02.01-.01.02-.02.01-.02.02-.01.01-.02.01-.01.02-.02.01-.02.02-.01.01-.02.02-.02.01-.01.02-.02.01-.01.02-.02.01-.02.02-.01.01-.02.02-.01.01-.02.02-.01.01-.02.02-.01.01-.02.02-.01.01-.02.02-.01.02-.02.01-.01.02-.02.01-.01.02-.02.02-.01.01-.02.02-.01.01-.02.02-.01.02-.02.01-.01.02-.01.01-.02.02-.01.02-.02.01-.01.02-.01.02-.02.02-.01.01-.01.02-.02.02-.01.01-.02.02v.02l-.02.02-.01.01-.02.02-.01.02-.01.02-.02.01-.01.02-.01.02-.01.02-.02.01v.02l-.02.02-.01.02-.02.01v.02l-.02.02-.01.02-.01.02-.02.01v.02l-.02.02-.01.02-.01.02-.01.02-.01.01-.02.02v.02l-.02.02-.01.02-.01.02-.01.02-.01.01-.01.02-.02.02v.02l-.02.02v.02l-.02.02-.01.02-.01.01-.01.02-.01.02-.01.02-.01.02-.01.02-.01.02-.01.02-.01.02-.01.02-.01.02-.01.02-.01.02-.01.02-.01.02-.01.02-.01.02-.01.01v.02l-.02.02v.02l-.01.02-.01.02-.01.02-.01.02v.02l-.02.02v.02l-.01.02-.01.02-.01.02-.01.02v.02l-.02.02v.02l-.01.02-.01.02v.02l-.01.02-.01.02v.03l-.02.02v.02l-.01.02v.02l-.01.02-.01.02v.02l-.01.02-.01.02v.02l-.01.02-.01.02v.02l-.01.02-.01.02v.03l-.01.02v.02l-.01.02-.01.02v.02l-.01.02v.02l-.01.02v.02l-.01.03v.02l-.01.02v.02l-.01.02v.02l-.01.02v.02l-.01.03v.02l-.01.02v.04l-.01.02v.05l-.01.02v.02l-.01.02v.05l-.01.02v.04l-.01.02v.05l-.01.02v.06l-.01.03v.06l-.01.02v.07l-.01.02v.16l-.01.02v16.22l.01.02V32.54l.01.02v.06l.01.03v.06l.01.02v.05l.01.02v.04l.01.02v.04l.01.03v.04l.01.02V33l.01.02v.02l.01.02v.04l.01.03v.02l.01.02v.02l.01.02v.02l.01.02v.02l.02.02v.04l.01.02v.03l.01.02v.02l.01.02v.02l.01.02v.02l.01.02.01.02v.02l.01.02v.02l.02.02v.02l.01.02v.02l.02.02v.04l.02.02v.02l.01.02v.02l.02.02v.02l.01.02v.02l.02.02v.02l.01.02.01.02V34l.02.02v.02l.01.02v.02l.02.02v.02l.01.02.01.02.01.02.01.02v.02l.02.02v.02l.02.02v.01l.01.02.01.02.01.02.01.02.01.02.01.02.01.02.01.02.01.01.01.02.01.02.01.02.01.02.02.02v.02l.02.01v.02l.02.02v.02l.02.02v.02l.02.01v.02l.02.02.01.02.01.02.01.01.02.02v.02l.02.02v.01l.02.02.01.02.01.02.01.02.02.01v.02l.02.02.01.02.02.01v.02l.02.02.01.02.02.01v.02l.02.02.01.01.02.02v.02l.02.02.01.01.02.02.01.02.01.01.02.02.01.02.01.01.02.02.01.02.02.01v.02l.02.01.02.02.01.02.01.01.02.02.01.01.01.02.02.02.01.01.02.02.01.01.02.02.01.01.02.02.01.02.02.01.01.02.02.01.01.02.01.01.02.02.01.01.02.02.01.01.02.02.01.01.02.02.01.01.02.02.02.01.01.02.02.01.01.02.02.01.01.01.02.02.02.01.01.02.02.01.01.02.02.01.02.01.01.02.02.01.02.01.01.02.02.01.02.02h.01l.02.02.02.02h.01l.02.02.02.02h.02l.01.02.02.01.02.02.01.01.02.01.02.02h.02l.02.02.01.01.02.02h.02l.01.02.02.01.02.02h.02l.02.02.01.01.02.01.02.02h.02l.02.02h.02l.01.02.02.01.02.01.02.01.02.02h.02l.02.02L19 44.12h.02v.02h.02l.02.01h.01l.02.02h.01l.02.01.01.01h.02l.01.02h.02l.01.01h.02l.01.02h.02l.01.01h.02v.02h.02l.02.01h.01l.02.01.01.01h.02l.01.01.02.01h.01l.02.01.01.01h.02l.01.01h.02l.01.02h.03l.02.01.01.01h.02l.01.01h.02l.01.01.02.01h.01l.02.01h.01l.02.01h.01l.02.01h.01l.02.01h.01l.03.02h.03l.03.02h.04l.03.01.03.01.03.01.03.01h.03l.03.02h.03l.03.01h.03l.04.01.03.01h.03l.03.01h.03l.03.01h.03l.03.01h.03l.03.01h.04l.03.01h.06l.03.01h.1l.03.01H21.35l.04-.01h.06l.03-.01h.06l.04-.01h.03l.03-.01h.03l.03-.01.03-.01h.03l.04-.01h.03l.03-.01.03-.01h.03l.03-.01.03-.01.03-.01h.03l.03-.02h.03l.04-.01.03-.01.01-.01h.02l.01-.01h.03l.02-.01h.01l.02-.01h.02l.01-.01h.02l.01-.01.02-.01h.01l.02-.01h.01l.02-.01h.01l.02-.01h.01l.02-.01.01-.01h.02l.01-.01h.02l.01-.01.02-.01h.01l.02-.01h.01l.02-.02h.01l.02-.01h.01l.02-.01.01-.01h.02v-.02h.02l.02-.01h.01l.02-.02h.01l.02-.01h.01l.02-.02h.01l.02-.01h.01l.02-.01.01-.01.02-.01 14.34-8h.02l.02-.01.01-.01.02-.01.01-.01.02-.01h.01l.02-.02h.01l.02-.01.01-.01.02-.01.01-.01.02-.01.01-.01.02-.01.01-.01h.02l.01-.02h.02v-.02h.02l.02-.02.02-.02h.02l.01-.02h.02l.01-.02h.01l.02-.02h.01l.01-.02h.02l.01-.02h.02l.01-.02h.01l.02-.02.01-.01.01-.01.02-.01.01-.01.02-.01v-.01l.02-.01.02-.01v-.01l.02-.02H38l.02-.02.01-.01.01-.01.02-.01v-.02h.02l.01-.02.02-.01v-.01l.02-.01.01-.02h.02v-.02l.02-.01.01-.01.02-.02v-.01l.02-.01.01-.01.01-.02h.01l.02-.02v-.01l.02-.02h.01l.01-.02.01-.01.02-.02.02-.02v-.01l.02-.01.01-.02.01-.01.01-.01.02-.02.02-.02v-.01l.02-.02.01-.01.01-.01.01-.02.01-.01.01-.01.01-.02h.01l.01-.02.01-.01.01-.02.01-.01.01-.02.01-.01.01-.01.01-.02.01-.01.01-.01.01-.02.01-.01.01-.01.01-.02.01-.01.01-.02.01-.01.01-.02.02-.02v-.02l.02-.01v-.01l.02-.02v-.01l.01-.02.01-.01v-.02l.02-.01v-.02l.02-.01v-.02l.01-.01.01-.02v-.01l.02-.01v-.02l.01-.01.01-.02.01-.01v-.02l.02-.01v-.02l.01-.01v-.02l.02-.01v-.02l.01-.01.01-.02v-.01l.02-.02v-.01l.01-.02v-.02l.02-.01v-.02l.01-.01v-.02l.01-.01.01-.02v-.01l.01-.02.01-.02v-.01l.01-.02v-.01l.02-.02v-.03l.01-.02.01-.01v-.02l.01-.01V34l.01-.02v-.01l.01-.02v-.01l.01-.02.01-.02v-.01l.01-.02v-.01l.01-.02v-.02l.01-.01.01-.02v-.02l.01-.01v-.02l.01-.01v-.04l.01-.01v-.02l.01-.01v-.02l.01-.02v-.03l.01-.02v-.01l.01-.02v-.03l.01-.02v-.01l.01-.02v-.04l.01-.01v-.03l.01-.02v-.04l.01-.01v-.04l.01-.01v-.05l.01-.02v-.05l.01-.02v-.07l.01-.01v-.09l.01-.02v-.1l.01-.02V15.33l-.01-.02v-.07l-.01-.02V15.16l-.01-.02v-.04l-.01-.04v-.03l-.01-.03v-.03l-.01-.03v-.03l-.01-.03-.01-.03-.01-.03v-.04l-.01-.03-.01-.03v-.03l-.02-.03v-.03l-.01-.03-.01-.03-.01-.03-.01-.03-.01-.03-.01-.03-.01-.03-.01-.03-.01-.03-.01-.03-.01-.03-.01-.03-.02-.03v-.03l-.02-.03-.01-.03-.01-.02-.02-.03v-.03l-.02-.03-.01-.03-.02-.03-.01-.03-.01-.02-.02-.03-.01-.03-.02-.03-.01-.03-.02-.02-.01-.03-.02-.03-.01-.02-.02-.03-.01-.03-.02-.03-.02-.02-.01-.03-.02-.02-.02-.03-.01-.03-.02-.02-.02-.03-.02-.02-.01-.03-.02-.03-.02-.02-.02-.02-.02-.03-.02-.02-.02-.03-.02-.02-.02-.03-.02-.02-.02-.03-.02-.02-.02-.02-.02-.03-.02-.02-.02-.02-.02-.03-.02-.02-.02-.02-.03-.03-.02-.02-.02-.02-.02-.02-.03-.02-.02-.03-.02-.02-.03-.02-.02-.02-.02-.02-.03-.02-.02-.02-.03-.02-.02-.02-.02-.02-.03-.02-.01-.01-.01-.01-.02-.01-.01-.01-.01-.01-.01-.01-.02-.01v-.01l-.02-.01-.02-.01v-.01l-.02-.01-.01-.01h-.02v-.02h-.02l-.01-.02h-.02l-.01-.02h-.01l-.02-.01-.01-.01-.01-.01-.02-.01h-.01l-.01-.02h-.02l-.01-.01-.01-.01-.02-.01-.01-.01h-.02l-.01-.01-.02-.01-14-8.22h-.01l-.02-.02h-.02l-.02-.02-.02-.01-.02-.01-.01-.01-.02-.01-.02-.01-.02-.01-.02-.01-.02-.01-.01-.01h-.02l-.02-.02h-.02l-.02-.02h-.02l-.02-.02h-.01l-.02-.01-.02-.01-.02-.01-.02-.01-.02-.01-.02-.01H23L23 3.82l-.02-.01-.02-.01-.02-.01h-.02l-.02-.02h-.02l-.02-.01-.02-.01h-.02l-.02-.02h-.02l-.01-.01h-.02l-.02-.01-.02-.01-.02-.01h-.02l-.02-.01-.02-.01h-.02l-.02-.01h-.02l-.02-.01-.02-.01h-.02l-.02-.01h-.02l-.01-.02h-.04l-.02-.01h-.02l-.02-.01-.02-.01h-.02l-.02-.01h-.02l-.02-.01h-.02l-.02-.01h-.02l-.02-.01h-.02l-.02-.01h-.02l-.02-.01h-.04l-.02-.01h-.02l-.02-.01h-.04l-.02-.01h-.04l-.02-.01h-.04l-.02-.01h-.04l-.02-.01h-.06l-.02-.01h-.04l-.02-.01h-.08l-.02-.01H21.4l-.02-.01h-.18l-.02-.01H21.03z"/>
    <path fill="#FFF" fill-rule="nonzero" d="M11.62 36.73V11.1h5.36v9.33h8.9V11.1h5.38v25.63h-5.38v-11.2h-8.9v11.2z"/>
  </g>
</svg>
