<svg width="24" height="24" viewBox="0 0 24 24" fill="none" xmlns="http://www.w3.org/2000/svg">
  <g clip-path="url(#clip0)" fill="#fff">
    <path d="M23.07 16.54c.3.53.52 1.13.93 1.58V20c-.68-.8-2.21-2.87-2.69-3.83-.47-1-1.06-2.02-1.53-3.03-.25-.49-.37-.92-.64-1.4a19 19 0 0 0-7.05-7.03A15.1 15.1 0 0 0 8.84 3.3c-.68-.19-1.5-.09-2.21-.23h-.48c-.4-.1-.74-.5-1.06-.7-.7-.43-1.4-.72-2.24-1.03-.29-.12-1.13-.4-1.42-.18-.18.04-.27.1-.32.26-.18.25-.02.62.1.85.33.66.8 1.05 1.24 1.6.38.5.86 1.05 1.13 1.58.58 1.16.86 2.43 1.4 3.58.2.43.52.93.81 1.32.25.3.7.53.84.92.27.41-.41 1.77-.57 2.2a8.14 8.14 0 0 0 .2 5.5c.28.57.52 1.25 1.25 1.41.04-.04 0-.02.09-.04.16-1.13.2-2.22.63-3.1.25-.56.75-.95 1.08-1.4.23.12.23.5.37.74.29.64.6 1.33.97 1.97.74 1.32 1.58 2.6 2.53 3.74.31.41.77.87 1.17 1.24.18.14.39.22.52.4h.05V24c-.68-.23-1.1-.86-1.65-1.23A12.34 12.34 0 0 1 10.33 20c-.3-.57-.6-1.13-.92-1.7v-.05c-.14.17-.1.33-.16.58-.3 1.03-.07 2.2-1.09 2.57-1.15.43-2-.7-2.37-1.21-1.15-1.71-1.47-4.59-.65-6.91.18-.52.2-1.13.52-1.54-.07-.37-.39-.48-.57-.7a9.8 9.8 0 0 1-.84-1.28c-.47-.84-.8-1.85-1.17-2.75-.16-.37-.2-.74-.36-1.1-.27-.53-.77-1.06-1.15-1.53-.52-.68-2.04-2-1.43-3.34.95-2.11 4.27-.51 5.56.23.32.19.68.58 1.04.72l1.7.08c1.06.23 2.05.41 2.89.85 3.88 2.07 6.41 4.19 8.74 7.69.5.74.74 1.54 1.15 2.34.57 1.2 1.2 2.45 1.85 3.58z"/>
    <path d="M8.45 7.1c-.27 0-.47.03-.66.08v.03h.03c.13.27.36.45.52.68l.38.8.03-.04c.23-.16.34-.43.34-.82-.1-.12-.11-.24-.2-.35-.1-.17-.3-.25-.44-.38z"/>
  </g>
  <defs>
    <clipPath id="clip0">
      <path fill="#fff" d="M0 0h24v24H0z"/>
    </clipPath>
  </defs>
</svg>
