<svg fill="none" height="48" viewBox="0 0 48 48" width="48" xmlns="http://www.w3.org/2000/svg">
  <path d="M22.43.01l-.73.07A24.06 24.06 0 0 0 .22 20.5c-.2 1.32-.22 1.7-.22 3.5s.02 2.17.22 3.49A24.1 24.1 0 0 0 21.7 47.94c.73.08 3.87.08 4.6 0a24.23 24.23 0 0 0 8.65-2.53c.4-.21.49-.27.43-.31-.03-.03-1.8-2.4-3.9-5.24l-3.84-5.19-4.81-7.11a684.17 684.17 0 0 0-4.85-7.12c-.01 0-.03 3.16-.04 7.02-.02 6.76-.02 7.03-.1 7.2a.85.85 0 0 1-.42.42c-.15.08-.28.09-.99.09h-.81l-.22-.14a.88.88 0 0 1-.31-.34l-.1-.2.01-9.42.01-9.4.15-.19c.08-.1.23-.22.35-.29.19-.09.26-.1 1.08-.1.95 0 1.11.04 1.36.31.07.08 2.68 4 5.8 8.72a21692 21692 0 0 0 9.46 14.34l3.8 5.76.2-.13c1.7-1.1 3.5-2.68 4.92-4.32 3.04-3.49 5-7.74 5.65-12.27.2-1.32.22-1.7.22-3.5s-.02-2.17-.22-3.49A24.1 24.1 0 0 0 26.37.07c-.45-.04-3.55-.1-3.94-.06zm9.82 14.52c.23.11.41.33.48.55.03.12.04 2.73.03 8.61v8.44l-1.5-2.28-1.49-2.28v-6.14c0-3.96.02-6.19.05-6.3a.96.96 0 0 1 .46-.59c.2-.1.27-.1 1-.1.7 0 .82 0 .97.09z" fill="#000"/>
</svg>
