<svg width="24" height="32" viewBox="0 0 24 32" fill="none" xmlns="http://www.w3.org/2000/svg">
  <path opacity=".8" d="M18.56 21.07c2.27 1.5 3.3 3.64 3.3 6.7-1.93 2.54-5.23 3.92-9.13 3.92-6.56 0-11.23-3.38-12.22-9.2h6.3c.82 2.67 2.96 3.91 5.88 3.91 3.47.04 5.82-1.91 5.87-5.33zM6.26 10.49a7.1 7.1 0 0 1-3.3-6.31c1.84-2.5 5.01-4 8.87-4 6.73 0 10.58 3.69 11.57 8.84h-6.09c-.68-2.04-2.35-3.64-5.4-3.64-3.3.04-5.52 2-5.65 5.1" fill="#fff"/>
  <path d="M2.96 4.22c0 4.22 2.53 6.76 7.58 8.1l5.36 1.28c4.8 1.16 7.71 4 7.71 8.62.05 2-.6 3.96-1.75 5.56 0-4.62-2.32-7.11-7.85-8.62L8.74 17.9c-4.24-.98-7.5-3.33-7.5-8.35 0-1.92.6-3.83 1.72-5.34" fill="#fff"/>
</svg>
