<svg xmlns="http://www.w3.org/2000/svg" fill="none" viewBox="0 0 50 42"><path fill="#9ADDFB" d="M8.32 8.35L14 2.68a3.78 3.78 0 015.35 0l5.68 5.67-8.35 8.35-8.36-8.35z"/><path fill="#4FC3F7" d="M24.97 8.35l5.68-5.67a3.78 3.78 0 015.35 0l5.68 5.67-8.36 8.35-8.35-8.35z"/><path fill="#35BAF6" d="M16.65 16.68L25 8.32l8.35 8.36L25 25.03l-8.35-8.35z"/><path fill="#CDEEFD" d="M2.68 19.35a3.78 3.78 0 010-5.35l5.67-5.68 8.35 8.36-8.35 8.35-5.67-5.68z"/><path fill="#1CB2F5" d="M8.32 25l8.36-8.35L25.03 25l-8.35 8.35L8.32 25z"/><path fill="#B3E5FC" d="M33.3 16.68l8.35-8.36L47.32 14a3.78 3.78 0 010 5.35l-5.67 5.68-8.35-8.35z"/><path fill="#9ADDFB" d="M24.97 25l8.35-8.35L41.68 25l-8.36 8.35L24.97 25z"/><path fill="#81D4F9" d="M16.65 33.32L25 24.97l8.35 8.35L27.68 39a3.78 3.78 0 01-5.36 0l-5.67-5.68z"/></svg>