<svg width="48" height="47" viewBox="0 0 48 47" fill="none" xmlns="http://www.w3.org/2000/svg"><path d="M31.48 8.75l-4.44 2.99-4.58-6.9 4.44-2.99 4.58 6.9z" fill="url(#paint0_linear)"/><path d="M35.09 29.48l7.58 11.45L33.64 47l-7.6-11.45-1.31-2 9.03-6.06 1.33 2z" fill="url(#paint1_linear)"/><path d="M23.7 37.13l1.67 2.52-6.87 4.62-3-4.52 1.5-1 5.38-3.62 1.32 2z" fill="url(#paint2_linear)"/><path d="M38.84 24.07l1.93-1.3 3 4.52-4.44 2.99-1.67-2.52 2.5-1.7-1.32-1.99zm-1.18 3.69l-1.33-2 2.51-1.69 1.33 2-2.51 1.69z" fill="url(#paint3_linear)"/><path d="M7.7 24.72l-1.5 1.01-4.57-6.9 6.88-4.62 3.2 4.84-5.37 3.6 5.38-3.6 1.36 2.06-5.37 3.61z" fill="url(#paint4_linear)"/><path d="M24.47 13.46l-9.04 6.07-1.37-2.06L6.55 6.13 15.58.06 23.1 11.4l1.37 2.06z" fill="url(#paint5_linear)"/><path d="M29.55 10.05l-2.51 1.69-1.37-2.07-3.2-4.83 4.43-2.99 4.58 6.9-1.93 1.3z" fill="url(#paint6_linear)"/><path d="M18.33 40.74l-1.33-2 5.38-3.6 1.32 1.99-5.37 3.61z" fill="#714896"/><path d="M37.66 27.76l-1.33-2 2.51-1.69 1.33 2-2.51 1.69z" fill="#6F4795"/><path d="M7.7 24.72l-1.36-2.06 5.38-3.61 1.36 2.06-5.37 3.61z" fill="#88519F"/><path d="M27.04 11.74l-1.37-2.07L28.18 8l1.37 2.06-2.51 1.69z" fill="#85509E"/><path d="M35.09 29.48l-9.04 6.07-1.32-2 9.03-6.06 1.33 2z" fill="#8D166A"/><path d="M23.1 11.4l1.37 2.06-9.04 6.07-1.37-2.06 9.04-6.07z" fill="#A70D6F"/><path d="M5.14 9.75l1.71 2.57-2.56 1.72-1.7-2.57 2.55-1.72z" fill="#9E61AD"/><path d="M14.36 40.6l1.7 2.57-2.55 1.72-1.71-2.57 2.56-1.72z" fill="#8053A3"/><path d="M7.63 43.19L.15 31.8l40-26.93 7.84 11.2L7.63 43.19z" fill="url(#paint7_linear)"/><defs><linearGradient id="paint0_linear" x1="-12.53" y1="-9.38" x2="47.68" y2="33.11" gradientUnits="userSpaceOnUse"><stop stop-color="#C06FBB"/><stop offset="1" stop-color="#6E4D9B"/></linearGradient><linearGradient id="paint1_linear" x1="37.82" y1="43" x2="4.33" y2="6.94" gradientUnits="userSpaceOnUse"><stop stop-color="#6E4D9B"/><stop offset=".14" stop-color="#77327A"/><stop offset=".29" stop-color="#B31777"/><stop offset=".84" stop-color="#CD0F7E"/><stop offset="1" stop-color="#ED2C89"/></linearGradient><linearGradient id="paint2_linear" x1="-7.42" y1="-28.24" x2="35.06" y2="47.35" gradientUnits="userSpaceOnUse"><stop stop-color="#C06FBB"/><stop offset="1" stop-color="#6E4D9B"/></linearGradient><linearGradient id="paint3_linear" x1="-24.72" y1="-12.24" x2="44.39" y2="43.73" gradientUnits="userSpaceOnUse"><stop stop-color="#C06FBB"/><stop offset="1" stop-color="#6E4D9B"/></linearGradient><linearGradient id="paint4_linear" x1="-14.41" y1="-12.4" x2="49.9" y2="44.01" gradientUnits="userSpaceOnUse"><stop stop-color="#C06FBB"/><stop offset="1" stop-color="#6E4D9B"/></linearGradient><linearGradient id="paint5_linear" x1="40.79" y1="43.89" x2="7.22" y2="7.61" gradientUnits="userSpaceOnUse"><stop stop-color="#6E4D9B"/><stop offset=".14" stop-color="#77327A"/><stop offset=".29" stop-color="#B31777"/><stop offset=".84" stop-color="#CD0F7E"/><stop offset="1" stop-color="#ED2C89"/></linearGradient><linearGradient id="paint6_linear" x1="-12.52" y1="-11.86" x2="48.68" y2="40.25" gradientUnits="userSpaceOnUse"><stop stop-color="#C06FBB"/><stop offset="1" stop-color="#6E4D9B"/></linearGradient><linearGradient id="paint7_linear" x1="5.65" y1="39.23" x2="34.95" y2="2.75" gradientUnits="userSpaceOnUse"><stop stop-color="#6E4D9B"/><stop offset=".14" stop-color="#77327A"/><stop offset=".53" stop-color="#B31777"/><stop offset=".79" stop-color="#CD0F7E"/><stop offset="1" stop-color="#ED2C89"/></linearGradient></defs></svg>