<svg width="48" height="48" viewBox="0 0 48 48" fill="none" xmlns="http://www.w3.org/2000/svg"><path fill-rule="evenodd" clip-rule="evenodd" d="M23.76 12.48h20.16v8.16H23.76v-8.16z" fill="#fff"/><path fill-rule="evenodd" clip-rule="evenodd" d="M5.52 39.12a4.8 4.8 0 01-4.15-2.4 4.77 4.77 0 00.76 5.8c.9.9 2.12 1.4 3.39 1.4h4.8v-4.8h-4.8z" fill="#3ECC5F"/><path fill-rule="evenodd" clip-rule="evenodd" d="M27.11 13.77l16.81-1.05v-2.4a4.8 4.8 0 00-4.8-4.8h-21.6l-.6-1.04a.7.7 0 00-1.2 0l-.6 1.04-.6-1.04a.7.7 0 00-1.2 0l-.6 1.04-.6-1.04a.7.7 0 00-1.2 0l-.6 1.04h-.02l-1-1a.7.7 0 00-1.15.32l-.33 1.22-1.24-.33a.7.7 0 00-.85.85l.33 1.24-1.22.33a.7.7 0 00-.31 1.16l.99 1v.01l-1.04.6a.7.7 0 000 1.2l1.04.6-1.04.6a.7.7 0 000 1.2l1.04.6-1.04.6a.7.7 0 000 1.2l1.04.6-1.04.6a.7.7 0 000 1.2l1.04.6-1.04.6a.7.7 0 000 1.2l1.04.6-1.04.6a.7.7 0 000 1.2l1.04.6-1.04.6a.7.7 0 000 1.2l1.04.6-1.04.6a.7.7 0 000 1.2l1.04.6-1.04.6a.7.7 0 000 1.2l1.04.6-1.04.6a.7.7 0 000 1.2l1.04.6-1.04.6a.7.7 0 000 1.2l1.04.6-1.04.6a.7.7 0 000 1.2l1.04.6a4.8 4.8 0 004.8 4.8h28.8a4.8 4.8 0 004.8-4.8v-19.2l-16.8-1.05a2.55 2.55 0 010-5.1z" fill="#3ECC5F"/><path fill-rule="evenodd" clip-rule="evenodd" d="M34.32 43.92h7.2v-9.6h-7.2v9.6z" fill="#3ECC5F"/><path fill-rule="evenodd" clip-rule="evenodd" d="M46.32 37.92l-.15.01-.03-.1a1.2 1.2 0 00-.46-2.31c-.27 0-.52.09-.73.25a6.11 6.11 0 00-.08-.08 1.2 1.2 0 00-.71-1.9 1.2 1.2 0 00-1.35.71l-.1-.03.01-.15a1.2 1.2 0 00-2.4 0l.01.15-.1.03a1.2 1.2 0 10-2.06 1.19 4.8 4.8 0 108 4.62l.15.01a1.2 1.2 0 000-2.4z" fill="#44D860"/><path fill-rule="evenodd" clip-rule="evenodd" d="M36.72 29.52h7.2v-4.8h-7.2v4.8z" fill="#3ECC5F"/><path fill-rule="evenodd" clip-rule="evenodd" d="M46.32 27.72a.6.6 0 000-1.2h-.08l-.01-.05a.6.6 0 00-.23-1.15.58.58 0 00-.36.12 1.39 1.39 0 00-.04-.04.59.59 0 00-.02-.73.6.6 0 00-1.01.14 2.4 2.4 0 100 4.62.6.6 0 101.03-.6l.04-.03c.1.07.22.12.36.12a.6.6 0 00.23-1.15l.01-.06.08.01z" fill="#44D860"/><path fill-rule="evenodd" clip-rule="evenodd" d="M15.12 13.32a.6.6 0 01-.6-.6 1.8 1.8 0 00-3.6 0 .6.6 0 11-1.2 0 3 3 0 116 0 .6.6 0 01-.6.6z" fill="#000"/><path fill-rule="evenodd" clip-rule="evenodd" d="M24.72 43.92h14.4a4.8 4.8 0 004.8-4.8v-16.8h-14.4a4.8 4.8 0 00-4.8 4.8v16.8z" fill="#FFFF50"/><path fill-rule="evenodd" clip-rule="evenodd" d="M40.32 29.76h-12a.24.24 0 010-.48h12a.24.24 0 110 .48zm0 4.8h-12a.24.24 0 010-.48h12a.24.24 0 110 .48zm0 4.8h-12a.24.24 0 010-.48h12a.24.24 0 110 .48zm0-11.95h-12a.24.24 0 010-.48h12a.24.24 0 110 .48zm0 4.75h-12a.24.24 0 010-.48h12a.24.24 0 110 .48zm0 4.8h-12a.24.24 0 010-.48h12a.24.24 0 110 .48zm3.6-22.17c-.75.02-1.1.76-1.41 1.42-.32.68-.57 1.12-.98 1.11-.46-.01-.72-.53-.99-1.07-.32-.62-.68-1.33-1.43-1.3-.73.02-1.08.67-1.4 1.24-.33.6-.55.97-.98.96-.47-.02-.71-.43-1-.92-.31-.53-.68-1.14-1.42-1.12-.72.03-1.07.58-1.38 1.06-.33.51-.56.82-1 .8-.48-.01-.72-.36-1-.76-.32-.45-.68-.96-1.42-.93-.7.02-1.06.47-1.37.87-.3.37-.52.67-1.01.65a.24.24 0 00-.02.48c.73.02 1.1-.43 1.41-.84.28-.36.53-.67 1-.68.47-.02.69.26 1.02.73.3.44.66.94 1.37.96.74.03 1.1-.53 1.42-1.02.28-.44.53-.82 1-.84.43-.01.66.33 1 .89.3.52.65 1.12 1.38 1.15.75.02 1.11-.63 1.43-1.21.27-.5.53-.97.98-1 .44 0 .66.4 1 1.05.3.61.65 1.3 1.39 1.33h.04c.74 0 1.09-.74 1.4-1.39.27-.58.53-1.12.97-1.14v-.48z" fill="#000"/><path fill-rule="evenodd" clip-rule="evenodd" d="M19.92 43.92h9.6v-9.6h-9.6v9.6z" fill="#3ECC5F"/><path fill-rule="evenodd" clip-rule="evenodd" d="M34.32 37.92l-.15.01-.03-.1a1.2 1.2 0 00-.46-2.31c-.27 0-.52.09-.73.25a6.11 6.11 0 00-.08-.08 1.2 1.2 0 00-.71-1.9 1.2 1.2 0 00-1.35.71l-.1-.03.01-.15a1.2 1.2 0 00-2.4 0l.01.15-.1.03a1.2 1.2 0 10-2.06 1.19 4.8 4.8 0 108 4.62l.15.01a1.2 1.2 0 000-2.4z" fill="#44D860"/><path fill-rule="evenodd" clip-rule="evenodd" d="M19.92 29.52h9.6v-4.8h-9.6v4.8z" fill="#3ECC5F"/><path fill-rule="evenodd" clip-rule="evenodd" d="M31.92 27.72a.6.6 0 000-1.2h-.08l-.01-.05a.6.6 0 00-.23-1.15.58.58 0 00-.36.12 1.39 1.39 0 00-.04-.04.59.59 0 00-.02-.73.6.6 0 00-1.01.14 2.4 2.4 0 100 4.62.6.6 0 101.03-.6l.04-.03c.1.07.22.12.36.12a.6.6 0 00.23-1.15l.01-.06.08.01z" fill="#44D860"/><path fill-rule="evenodd" clip-rule="evenodd" d="M34.32 10.02a.65.65 0 01-.23-.05.62.62 0 01-.2-.13.63.63 0 01-.12-.19.63.63 0 01-.05-.23.63.63 0 01.27-.5.62.62 0 01.76.07c.1.12.17.27.17.43a.6.6 0 01-.6.6zm4.8-.3a.61.61 0 01-.5-.27.62.62 0 01-.1-.33.61.61 0 01.26-.5.62.62 0 01.67 0 .61.61 0 01.17.83.62.62 0 01-.27.22.61.61 0 01-.23.05z" fill="#000"/></svg>
