<svg width="48" height="48" viewBox="0 0 48 48" fill="none" xmlns="http://www.w3.org/2000/svg"><circle cx="24" cy="24" r="24" fill="#222"/><path d="M10.75 30.59c-.22 0-.34-.25-.34-.75V16.95c0-.11-.02-.2-.06-.25-.04-.05-.08-.07-.14-.06l-1.28.25c-.11.02-.2 0-.25-.06-.06-.08-.08-.2-.08-.36v-.87c0-.23.11-.37.34-.41l3.36-.67.18-.03c.2 0 .29.16.29.47v14.88c0 .5-.11.75-.35.75h-1.68.01zm7.35 0c-.22 0-.33-.25-.33-.75V16.95c0-.11-.03-.2-.07-.25-.04-.05-.08-.07-.14-.06l-1.28.25c-.11.02-.2 0-.25-.06a.68.68 0 01-.08-.36v-.87c0-.23.12-.37.35-.41l3.35-.67.19-.03c.2 0 .3.16.3.47v14.88c0 .5-.12.75-.36.75H18.1zm9.8.02c-.36 0-.68-.02-.96-.07a2.7 2.7 0 01-.82-.3 2.03 2.03 0 01-.66-.6 3.6 3.6 0 01-.41-1.04c-.1-.5-.16-1.01-.15-1.53v-6.14c0-.14-.06-.2-.16-.2h-.95c-.24 0-.35-.16-.35-.5v-.42c0-.33.12-.5.35-.5h.95c.1 0 .15-.1.16-.3l.24-3.97c.02-.38.14-.57.37-.57h1.03c.12 0 .21.04.27.13.05.07.09.22.09.44v3.98c0 .2.05.3.17.3h1.9c.12 0 .2.03.26.1.07.06.09.19.09.38v.44c0 .19-.02.32-.08.38-.06.08-.15.1-.27.1h-1.9c-.06 0-.12.02-.14.04-.03.02-.03.08-.03.17v6.14c0 .62.07 1.12.2 1.46.15.35.3.56.48.65.2.08.43.12.72.12h1.01c.27 0 .4.12.4.34v.59c0 .25-.15.38-.43.38H27.9zm5.76 1.57c.27 0 .5-.17.74-.52.23-.34.35-.75.35-1.25 0-.19-.1-.6-.3-1.23l-3.08-9.2a1.43 1.43 0 01-.03-.25c0-.27.08-.41.22-.41h1.4c.26 0 .43.18.51.55l2.22 7.68c.04.07.06.12.08.12.03 0 .05-.05.05-.12l1.83-7.64c.06-.4.23-.6.48-.6h1c.17 0 .25.15.25.45l-.04.26-2.64 10.42a5.35 5.35 0 01-1.05 2.4c-.42.43-.96.66-1.65.69h-.2c-.78 0-1.29-.15-1.52-.45-.05-.06-.08-.2-.08-.4 0-.47.11-.7.33-.7l.5.1c.3.07.51.1.63.1z" fill="#fff"/><path d="M10.2 16.64l.15.44h.02l.03-.02-.18-.42h-.01zm-1.27.25v-.45h-.06l-.05.01.1.44zm-.25-.06l-.52.21.02.03.03.02.47-.26zm.26-1.64l.12.43h.03l-.15-.43zm3.36-.67l-.12-.44h-.04l.16.44zm-1.55 15.62c.1 0 .2.04.26.08.05.04.05.06.05.04a1.15 1.15 0 01-.06-.42H9.82c0 .26.03.51.12.71.08.19.32.49.81.49v-.89zm.25-.3V16.95H9.82v12.9H11zm0-12.89a.75.75 0 00-.14-.47l-1.02.44a.18.18 0 01-.02-.03v.06H11zm-.14-.47a.7.7 0 00-.32-.23.89.89 0 00-.52-.03l.38.85a.63.63 0 01-.37-.02.4.4 0 01-.18-.13l1.02-.44zm-.8-.27l-1.24.24H8.8h.11v.89h.1a9.4 9.4 0 00.38-.07l.95-.19-.28-.87zm-1.24.24a.41.41 0 01.32.1l-.93.54a.97.97 0 00.82.23l-.2-.88v.01zm.37.15l.02.04v-.01l-.02-.16H8.02c0 .18.01.4.14.58l1.03-.44zm0-.14v-.86H8.02v.87h1.17zm0-.86v-.05a.2.2 0 01-.06.05.2.2 0 01-.07.02l-.24-.87c-.26.05-.48.15-.64.33a.85.85 0 00-.16.52h1.17zm-.1.02l3.36-.67-.31-.87-3.36.68.3.86zm3.32-.66l.1-.02h-.02v-.9c-.1 0-.23.02-.31.04l.24.88h-.01zm.08-.02a.45.45 0 01-.21-.05.27.27 0 01-.1-.09v.03l.01.14h1.17a1 1 0 00-.13-.54.74.74 0 00-.28-.28.99.99 0 00-.47-.1v.9zm-.3.03v14.87h1.17V14.97h-1.17zm0 14.87l-.01.28-.04.13.04-.03a.4.4 0 01.24-.08v.9c.22 0 .4-.06.56-.16a.8.8 0 00.27-.33c.09-.2.12-.45.12-.7h-1.18zm.24.31h-1.68v.89h1.68v-.89zm5.12-13.5l.16.43h.02l.01-.01-.18-.43zm-1.28.24v-.45h-.05l-.04.01.1.44zm-.24-.06l-.52.21.03.03.02.02.47-.26zm.27-1.64l.12.43h.02l-.14-.43zm3.35-.67l-.13-.44h-.03l.15.44zM18.1 30.14c.1 0 .2.04.27.08l.04.04a1.15 1.15 0 01-.06-.42h-1.17c0 .26.03.51.12.71.08.19.32.49.8.49v-.89zm.25-.3V16.95h-1.17v12.9h1.17zm0-12.89a.75.75 0 00-.13-.47l-1.03.44a.18.18 0 01-.01-.03v.06h1.17zm-.13-.47a.7.7 0 00-.32-.23.89.89 0 00-.52-.03l.36.85a.63.63 0 01-.36-.02.4.4 0 01-.19-.13l1.03-.44zm-.8-.27l-1.25.24s-.01 0 0 0h.1v.89h.1a9.97 9.97 0 00.38-.07l.96-.19-.3-.87zm-1.24.24a.41.41 0 01.32.1l-.94.54c.09.09.22.17.38.21.16.05.32.05.44.02l-.2-.88v.01zm.36.15l.02.04v-.01l-.02-.16h-1.17c0 .18.01.4.14.58l1.03-.44zm0-.14v-.86h-1.17v.87h1.17zm0-.86v-.05a.2.2 0 01-.06.05.2.2 0 01-.06.02l-.24-.88c-.27.05-.48.16-.64.33a.85.85 0 00-.17.52h1.17v.01zm-.1.02l3.36-.67-.3-.87-3.36.67.3.87zm3.32-.66l.1-.02h-.02v-.9c-.1 0-.22.02-.31.04l.24.88h-.01zm.08-.02a.45.45 0 01-.2-.05.27.27 0 01-.11-.09v.03l.01.14h1.18a1 1 0 00-.13-.54.74.74 0 00-.29-.28.99.99 0 00-.46-.1v.9zm-.3.03v14.87h1.18V14.97h-1.18zm0 14.87l-.01.28c0 .04-.02.09-.04.13-.01.02 0 0 .05-.03a.4.4 0 01.24-.08v.9c.21 0 .4-.06.56-.16a.8.8 0 00.26-.33c.09-.2.12-.45.12-.7h-1.18zm.24.31H18.1v.89h1.68v-.89zm7.16.4l-.14.43h.02l.12-.44zm-.82-.3l-.35.36.35-.37zm-.66-.61l-.53.2.53-.2zm-.41-1.04l-.59.08v.01l.59-.08zm-.15-9.58L24.3 19l.59.02zm.24-3.97l.6.02-.6-.02zm1.67-.45l-.51.22v.01l.5-.23zm.12 6.17l-.42-.32-.04.03-.03.04.48.25zm.17 7.77l-.56.13.56-.14zm.48.64l-.32.38h.02l.02.02.3-.39h-.02zm.32 1c-.33 0-.61-.03-.84-.06l-.24.87c.32.06.68.08 1.08.08v-.9zm-.82-.06c-.18-.04-.4-.1-.62-.23l-.68.72c.32.18.66.31 1.02.38l.28-.87zm-.62-.23c-.2-.11-.36-.27-.48-.45l-1.04.42c.2.3.48.56.83.75l.7-.71v-.01zm-.48-.44c-.16-.28-.29-.6-.36-.92l-1.16.17c.12.45.27.83.47 1.14l1.05-.39zm-.36-.9a6.7 6.7 0 01-.13-1.48H24.3c0 .62.05 1.16.15 1.63l1.16-.16zm-.13-1.48v-6.13H24.3v6.14h1.18zm0-6.13a.6.6 0 00-.13-.39.77.77 0 00-.62-.27v.9a.56.56 0 01-.39-.16c-.05-.07-.04-.12-.04-.08h1.18zm-.75-.66h-.95v.9h.95v-.9zm-.95 0c.04 0 .1.01.16.04s.08.06.1.08v-.02a.6.6 0 01-.02-.14h-1.17c0 .19.02.4.16.58.06.1.16.2.32.27.14.07.3.1.45.1v-.92.01zm.24-.04v-.42h-1.17v.42h1.17zm0-.42l.01-.14c0-.03.02-.03 0-.02a.25.25 0 01-.1.07.37.37 0 01-.15.04v-.9c-.15 0-.31.02-.45.1a.73.73 0 00-.32.25.93.93 0 00-.16.6h1.17zm-.24-.05h.95v-.9h-.95v.9zm.95 0c.4 0 .59-.23.65-.35.07-.13.08-.27.1-.39L24.3 19c0 .08-.02.1 0 .08 0-.02.03-.06.1-.12a.6.6 0 01.33-.08v.9zm.75-.73l.24-3.97-1.17-.04-.25 3.97 1.18.04zm.24-3.98l.02-.18.03-.06-.08.06a.4.4 0 01-.19.05v-.9c-.16 0-.33.03-.49.1a.8.8 0 00-.3.29c-.12.18-.16.4-.16.62l1.18.01h-.01zm-.22-.13h1.03v-.9h-1.03v.89zm1.03 0c-.03 0-.08 0-.15-.04a.25.25 0 01-.1-.08l1.04-.42a.8.8 0 00-.32-.27 1.1 1.1 0 00-.47-.09v.9zm-.24-.1l-.02-.03.02.03.01.22h1.18c0-.12-.01-.24-.03-.35a.77.77 0 00-.15-.33l-1 .46zm0 .22v3.97h1.19v-3.98H26.3v.01zm0 3.97c0 .12.02.27.1.4.05.08.12.17.24.24.14.07.29.11.43.11v-.9c.09 0 .2.01.28.07.08.04.11.09.13.11v-.03h-1.17zm.77.75h1.9v-.9h-1.9v.9zm1.9 0c-.02 0-.06 0-.1-.02a.3.3 0 01-.13-.08l.99-.5a.97.97 0 00-.76-.3v.9zm-.23-.1a.17.17 0 01-.02-.04v.02c0 .03.02.08.02.17h1.17c0-.12 0-.23-.03-.33a.72.72 0 00-.16-.31l-.98.5zm0 .15v.42h1.17v-.42h-1.17zm0 .42c0 .08 0 .14-.02.17v.02l.02-.05.99.5c.09-.1.13-.23.16-.32l.02-.32h-1.17zm0 .14a.3.3 0 01.12-.07.32.32 0 01.1-.03v.9a1 1 0 00.77-.3l-.99-.5zm.23-.1h-1.9v.9h1.9v-.9zm-1.9 0a.94.94 0 00-.56.17l.83.64a.5.5 0 01-.27.1v-.92.01zm-.64.23a.5.5 0 00-.11.26v.17h1.17v-.05l-.01.03-.02.03a.38.38 0 01-.04.07l-.98-.5zm-.12.43v6.14h1.18v-6.15H26.3zm0 6.14c0 .64.07 1.18.23 1.59l1.12-.27c-.13-.42-.2-.87-.17-1.32H26.3zm.23 1.6c.08.19.18.36.28.5.1.14.24.28.44.38l.65-.75c.03.01 0 0-.06-.07-.08-.11-.14-.22-.19-.34l-1.12.27zm.76.9c.31.13.65.19 1 .18v-.9c-.22 0-.35-.03-.42-.06l-.58.77zm1 .18h1.01v-.9H28.3v.9zm1.01 0h-.03a.3.3 0 01-.11-.07c-.07-.06-.05-.1-.05-.04h1.18a.68.68 0 00-.26-.56c-.2-.18-.49-.23-.73-.23v.9zm-.19-.11v.58h1.18v-.6h-1.18v.02zm0 .6v.03s0-.02.03-.05a.27.27 0 01.1-.05h.03v.89c.26 0 .56-.06.77-.26.2-.17.24-.38.24-.57h-1.17zm.16-.08H27.9v.9h1.38v-.9zm5.12 1.5l-.53-.2.53.2zm.06-2.49l.57-.1-.57.1zm-3.1-9.2l-.58.06v.03l.02.03.56-.12zm2.11-.1l-.58.08v.02l.58-.1zm2.22 7.67l-.57.1v.03l.02.02.56-.15h-.01zm.13 0l-.57-.07-.02.03v.04h.6zm1.83-7.63l.57.08v-.03l-.57-.05zm1.69.1l.57.1v-.02l.01-.01-.58-.06zM36.7 30.45l-.59-.08.58.08zm-1.05 2.4l-.48-.26.48.26zm-1.65.7v.44h.02l-.02-.45zm-1.72-.45l-.51.21v.02l.51-.23zm1.38-.45c.64 0 1.03-.4 1.26-.77l-1.05-.4c-.1.15-.17.23-.22.26-.05.04-.04.01.01.01v.9zm1.26-.76c.29-.42.42-.91.42-1.46h-1.18c.01.37-.09.74-.29 1.05l1.04.41h.01zm.42-1.46c0-.25-.12-.72-.3-1.34l-1.16.21c.2.64.28 1 .28 1.13h1.18zm-.32-1.34l-3.08-9.21-1.14.22 3.09 9.2 1.13-.22zm-3.07-9.17a1.13 1.13 0 01-.02-.18h-1.18l.03.3 1.17-.12zm-.02-.18V19.59s-.03.05-.1.1a.55.55 0 01-.27.07v-.9a.9.9 0 00-.47.13.67.67 0 00-.24.26c-.08.15-.1.32-.1.48h1.18zm-.37.03h1.4v-.9h-1.4v.9zm1.4 0l-.11-.02-.05-.03.04.06.05.17 1.16-.14a1.26 1.26 0 00-.28-.6 1.06 1.06 0 00-.82-.33v.9zm-.06.21l2.22 7.67 1.14-.2-2.21-7.66-1.15.2zm2.24 7.73c.03.07.07.14.12.2l.08.08c.03.01.17.14.43.14v-.9c.14 0 .29.04.4.12l.09.07.01.04-.03-.07-1.1.31v.01zm.63.42c.15 0 .3-.05.41-.13a.5.5 0 00.22-.44h-1.17l.03-.07a.4.4 0 01.13-.15.66.66 0 01.38-.1v.89zm.64-.5L38.22 20l-1.15-.16-1.82 7.63 1.15.16zm1.82-7.65l.05-.2a.3.3 0 01.04-.07l-.05.03a.33.33 0 01-.13.03v-.9c-.38 0-.66.16-.82.36-.14.19-.22.4-.26.63l1.17.12zm-.1-.2h1v-.9h-1v.9zm1 0a.5.5 0 01-.25-.07.28.28 0 01-.1-.1v.03l.01.13h1.18c0-.17-.02-.35-.1-.51a.7.7 0 00-.26-.26.95.95 0 00-.48-.12v.9zm-.34 0v-.03.04l-.04.18 1.17.12.03-.18.02-.14H38.8zm-.03.16l-2.64 10.42 1.15.17 2.64-10.42-1.15-.17zm-2.65 10.43a4.91 4.91 0 01-.94 2.2l.96.54c.5-.53.86-1.42 1.14-2.59l-1.16-.15zm-.94 2.22c-.31.33-.7.48-1.2.5l.05.9a2.94 2.94 0 002.1-.89l-.95-.51zm-1.17.5h-.2v.9h.2v-.9zm-.2 0c-.71 0-.95-.14-1.02-.23l-1 .46c.4.51 1.19.66 2.03.66v-.89zm-1-.22l.02.04v-.03l-.02-.2h-1.18c0 .12.01.22.03.32.01.09.05.2.13.3l1.02-.43zm0-.18l.02-.26c0-.04.01-.08.03-.11l-.05.04a.46.46 0 01-.26.08v-.89c-.21 0-.4.06-.55.16-.1.08-.2.19-.25.31-.08.2-.12.43-.12.67h1.18zm-.26-.25h-.08.08l.33.08.33-.86-.48-.1-.18-.02v.9zm.33.08c.3.07.59.12.8.12v-.9l-.13-.01c-.08-.02-.2-.03-.34-.07l-.32.86z" fill="#fff"/></svg>