<svg width="48" height="45" viewBox="0 0 48 45" fill="none" xmlns="http://www.w3.org/2000/svg"><path d="M6.38 42.87l.15-.34.02-.05c.11-.27.23-.55.33-.83l.42-1.11.23-.63c.19-.5.44-1.17.75-1.81a11.7 11.7 0 011.03-1.75l.17-.23.23-.15.11-.06.34-.16a12.3 12.3 0 011.72-.48 32.6 32.6 0 012.2-.4c1.3-.2 2.69-.38 4.37-.57 2.97-.32 5.92-.54 8.77-.69 1.51-.07 2.67-.1 3.75-.1h.68c.77 0 1.54.05 2.3.15a4 4 0 01.7.16l.18.07.22.1.18.16.22.21c.28.28.54.58.79.9a19.36 19.36 0 012.34 3.91c.6 1.28 1.05 2.62 1.33 4l.34 1.76h-4.18l-.25-1.18c-.27-1.27-3.73-4.64-5.45-5.3-.18-.06-.92-.27-3.18-.27-4.67 0-11.29.83-12.24 1.02-1.12.52-2.84 2.73-3.83 4.9l-.4.9" fill="#fff"/><path d="M35.06 36.2a8.81 8.81 0 00-.68-.77l-.17-.17-.05-.01a2.44 2.44 0 00-.42-.1c-.7-.09-1.4-.13-2.1-.13-1.43-.02-2.88.03-4.33.1a145.68 145.68 0 00-12.98 1.24 35.86 35.86 0 00-3.13.64 4.85 4.85 0 00-.62.23l-.03.02a9.41 9.41 0 00-.9 1.5c-.25.54-.48 1.11-.7 1.69-.2.58-.42 1.17-.65 1.75-.1.3-.22.5-.35.79-.05.13-.11.32-.17.32h1.95c1.06-2.43 3.04-4.94 4.71-5.62.46-.19 7.85-1.06 12.73-1.06 1.81 0 3.07.07 3.73.33 2 .76 5.98 4.46 6.4 6.35h1.13a14.27 14.27 0 00-1.22-3.59 17.14 17.14 0 00-2.15-3.52z" fill="#BA8449"/><path d="M34.2 35.25h-.01z" fill="#fff"/><path d="M34.2 35.25h-.01z" fill="#BA8449"/><path d="M37.16 44.92l-.24-1.2a14.66 14.66 0 00-1.11-3.32 16.33 16.33 0 00-1.96-3.28 5.79 5.79 0 00-.42-.49c-.6-.06-1.22-.1-1.83-.1h-.62c-1.03 0-2.14.03-3.6.1a148.6 148.6 0 00-12.82 1.22 34.22 34.22 0 00-2.92.59l-.1.03-.16.27a19.26 19.26 0 00-.99 2.23l-.23.61c-.14.38-.27.77-.44 1.17l-.36.9-.02.04c-.05.13-.11.23-.17.36l-.4.87H6.1l-.38-.15h-.04c-.62-.3-.98-.95-.9-1.62v-.07l.06-.2.06-.25.15-.5a19.63 19.63 0 011.06-2.9 22.4 22.4 0 011.52-2.83c.22-.33.44-.64.68-.93a2.6 2.6 0 01.86-.72 7.48 7.48 0 011.21-.47 33.16 33.16 0 013.5-.7c1.33-.2 2.72-.38 4.44-.55 3-.3 5.99-.52 8.86-.64 1.38-.06 2.44-.08 3.44-.08h1.06c.83 0 1.67.06 2.5.17h.02c.3.05.6.12.89.22h.02a2.86 2.86 0 01.66.34l.1.08.1.07.08.08.26.25c.31.32.6.65.88 1a21.6 21.6 0 013.33 6.43c.25.73.43 1.48.56 2.25l.29 1.72h-4.2z" fill="#fff"/><path d="M7.85 44.92l1.02-2.12c.86-1.8 2.9-5.1 5.17-6.02h.04c.77-.28 8.43-1.16 13.1-1.16 2.62 0 3.6.27 4.11.45 2.37.91 6.47 4.75 7.03 7.02l.45 1.84H7.85z" fill="#fff"/><path d="M35.64 44.92l-.28-1.12c-.27-1.07-3.5-4.28-5.16-4.92-.16-.06-.82-.25-3.02-.25-4.5 0-11 .8-12.07 1-.87.44-2.44 2.26-3.48 4.46l-.42.83H7.38l.96-2.1c1.13-2.5 3.34-5.58 5.52-6.47.85-.34 8.61-1.2 13.31-1.2 2.05 0 3.41.15 4.28.49 2.36.9 6.79 4.86 7.34 7.5l.38 1.78h-3.53z" fill="#fff"/><path d="M37.39 44.92l-.44-.37c-1.66-1.53-2.11-4.68-1.6-5.98a1.7 1.7 0 012.08-1.1c.3-.02.99-.58 1.2-.92.33-.61.98-.99 1.68-.96 1.13 0 2.95.89 3.55 1.73.34.45.43 1.03.25 1.56l-.1.26c-.61 1.85-1.41 4.07-2.07 5.11l-.43.67h-4.12z" fill="#fff"/><path d="M37.25 44.92l1.42-2.27c.55-.87 1.04-1.78 1.48-2.72-.8.56-1.93.93-3.6 1l-.04-.03-.03.15a1.85 1.85 0 01-.1-3.7c1.63-.07 1.85-.45 2.15-1.03.42-.78 1.32-1.22 2.48-1.22.29 0 .58.02.86.09a2.98 2.98 0 012.45 2.83c.07 1.45-.72 3.52-2.34 6.2l-.45.7h-4.28z" fill="#fff"/><path d="M43.3 40.5c-1.86 0-3.88-1.2-4.92-2.4-.94-1.07-1.03-2.03-.95-2.64.13-.9.94-1.56 1.86-1.5.2 0 .4.02.6.05.18-.81.61-2.53 2.37-2.53h.24a2 2 0 011.74 1.43 2 2 0 012.43.41c.62.65.77 1.62.38 2.43.42.26.73.67.86 1.15.2.65.07 1.35-.34 1.89-.82 1.1-2.66 1.65-4.14 1.7h-.13zM41.45 2.91c-1.68 1.05-3.52 3.45-5.75 6.74-.36.52-.95.82-1.58.8-.83 0-1.87-.49-3.09-1.46-1.93-1.55-1.97-2.44-1.99-2.75a1.7 1.7 0 011.59-1.79c1.86-.17 3.4-1.28 4.9-2.35C37.02 1.04 38.4.04 40.04.04c.33 0 .66.04.98.12" fill="#fff"/><path d="M30.78 5.96c4.5-.42 7.12-5.05 9.86-4.33-1.83 1.14-3.66 3.42-6.2 7.17-.6.88-4.88-2.73-3.66-2.84z" fill="#FFF8EF"/><path d="M1.65 3.81a6.43 6.43 0 014.51-1.55c1.61 0 3.51.4 5.65 1.17a6 6 0 001.9.23H14.55c.54 0 1.66 0 2.12 1.04.3.7.2 1.52-.25 2.13a6.11 6.11 0 01-4.67 2.4h-.1c-1.02 0-2-.55-3.12-1.18-1.4-.78-2.99-1.66-4.86-1.66-.26 0-.52.01-.78.05M36.25 14.9c-.83 0-2.37-.34-3.38-2.66a9.24 9.24 0 01-.74-3.4c0-1.63.85-2.05 1.36-2.17.37-.37 1.06-1.3 1.57-2C37.17 1.85 38.68 0 40.43 0c.3 0 .58.05.85.16a4.71 4.71 0 013.12 5.43c-.27 1.85-1.44 4.05-3.17 6.04-.81.93-2.9 3.12-4.74 3.26l-.24.01z" fill="#fff"/><path d="M9.15 15.71c-.2.02-.4.02-.6 0-2.94-.47-6.6-3.4-7.99-6.44-.94-2.08-.52-3.49 0-4.32A4.17 4.17 0 014.23 2.9c1.87 0 3.75 1.03 5.41 1.93.64.34 1.56.85 1.95.94a1.7 1.7 0 011.9.81c.77 1.33.3 4.86-.89 6.92-.83 1.45-2.06 2.21-3.45 2.21z" fill="#fff"/><path d="M19.37 41.14c-6.9 0-13.7-3.33-15.96-5.76C1.05 32.85.2 29.98.85 26.85c.54-2.57 1.98-4.88 3.26-6.93.88-1.4 1.7-2.73 1.93-3.69C8.84 3.94 15.86 2.37 21.66 2.37c.37 0 .75 0 1.18.02 12.36.37 13.6 6.3 14.33 9.85.1.58.24 1.14.43 1.7 4.15 10.13 4.83 16.2 2.3 20.3-2.5 4.03-7.98 6-18.91 6.87-.54.04-1.09.03-1.63.03z" fill="#fff"/><path d="M19.11 41.24c-7.01 0-13.51-3.47-15.7-5.82C1.05 32.88.2 30.02.85 26.87c.54-2.57 1.98-4.89 3.26-6.94.88-1.4 1.7-2.74 1.93-3.7C8.84 3.96 15.86 2.38 21.66 2.38c.37 0 .75 0 1.18.02 12.36.37 13.6 6.3 14.33 9.85.1.58.24 1.14.43 1.7 4.08 9.97 4.76 15.98 2.25 20.09-2.87 4.71-9.61 6.25-18.84 7.12-.62.06-1.26.09-1.9.09z" fill="#fff"/><path d="M36.97 32.66l.27-.65c.95-2.24 1.63-4.2.52-5.44-1.33-1.46-6.97-4.1-11.94-6.44-9.57-4.48-15.47-7.38-16.32-10.28a2.57 2.57 0 01.27-2.12c1.63-2.57 6.26-5.34 12.56-5.34h.19c5.93.05 10.25 1.75 12.85 5.05 2.19 2.8 2.69 6.04 3.05 8.41.12.82.27 1.82.44 2.1 4.5 7.69 2.44 13.36.81 16.05l-2.7-1.34z" fill="#fff"/><path d="M32.27 23.83c-2.32 0-6.18-.58-7.53-1.85-1.05-1-1.46-2.66-1.84-4.27a14.3 14.3 0 00-.7-2.27h-.02l-.3.81c-.63 1.75-1.49 4.13-3.31 5.41-.79.56-3.6 1.09-5.78 1.09-2.17 0-3.82-.47-4.92-1.4C6.3 20.03 5.1 17.6 4.3 14.11l-.1-.07a2.83 2.83 0 01-1.11-1.08c-.42-.83-.25-2.3.18-3.06.3-.55.85-.92 1.47-.99h.2c.34.02.68.06 1.01.12a7.57 7.57 0 001.37.14c2.01-.3 4.04-.47 6.08-.49 4.52 0 6.9.92 7.79 1.27l.18.07a5.35 5.35 0 001.78.11c1.91-.3 3.84-.45 5.78-.46 4.77 0 7.3 1.08 8.39 1.55l.24.1h.09c.37-.03.74-.09 1.1-.18a8.46 8.46 0 011.03-.16c.75.01 1.42.44 1.74 1.1.44.8.73 2.47.12 3.43-.4.63-1.09.94-1.63 1.18l-.23.1c-.18.32-.51.96-.78 1.5-.8 1.56-1.7 3.33-2.53 4.29-.72.84-2.1 1.25-4.19 1.25z" fill="#fff"/><path d="M31.35 23.44c-1.84 0-4.42-.27-6.28-1.57-1.06-.75-1.54-2.27-2.2-4.68-.19-.72-.41-1.43-.67-2.13-.12.27-.25.63-.36.93-.7 1.84-1.63 4.36-3.35 5.4-.89.55-3.66 1.05-5.82 1.05-2.31 0-3.98-.51-4.95-1.53-2.45-2.55-2.94-4.99-3.23-6.44l-.14-.65c-1.44-.75-1.54-1.88-1.5-2.34.03-.86.74-1.54 1.6-1.55.45.01.87.17 1.21.45l.08.06.13.04c.88.2 1.54.9 1.67 1.8.26 1.1.6 2.18 1.01 3.24.95 2.43 1.62 2.85 1.67 2.89.88.28 1.8.41 2.72.4 1.25 0 2.5-.19 3.68-.55.34-.54 1.04-1.89 1.51-2.83 1.46-2.86 1.7-3.3 2.31-3.6.4-.2.83-.3 1.27-.28.73.01 1.46.14 2.15.38 1.06.44 1.63 1.82 2.84 5.36.21.63.5 1.46.67 1.9.92.43 3 .73 5.2.73.61 0 1.06-.02 1.35-.05l.76-1.58c1.76-3.7 2.02-4.13 2.48-4.48.84-.57 1.82-.9 2.84-.96.81-.04 1.53.51 1.69 1.3.24 1.34-1.05 1.83-1.48 2l-.38.15c-.16.27-.46.86-.7 1.35-1.88 3.66-2.5 4.66-3.22 5.08-.84.48-2.96.71-4.56.71z" fill="#fff" opacity=".3"/><path d="M7.19 12.64a5.9 5.9 0 01-1.87-.4l-.67-.23c-.33-.13-1.21-.47-1.21-1.52V8.95h1.49c.15 0 .3.03.45.08.32.05 1.36.13 1.7.15l.2.02c.28 0 1.13-.12 1.5-.17.25-.05.5-.07.77-.08h1.31l.2 1.29c.12.76-.36 1.48-1.1 1.69l-.34.11c-.73.31-1.5.52-2.3.6H7.2zM37.49 14.84a3.22 3.22 0 01-1.78-.69c-.66-.46-1.27-.9-1.27-1.7v-1.51h1.6c.22 0 .45.04.66.12.17.08.81.28 1.08.34.1-.01.3-.1.66-.17.16-.05.32-.09.48-.1h1.3l.2 1.31c.13.75-.3 1.47-1.03 1.7l-.27.16c-.42.24-.88.42-1.36.52l-.27.02z" fill="#fff" opacity=".3"/><path d="M35.06 36.2a8.81 8.81 0 00-.68-.77l-.17-.17-.05-.01a2.44 2.44 0 00-.42-.1c-.7-.09-1.4-.13-2.1-.13-1.43-.02-2.88.03-4.33.1a145.68 145.68 0 00-12.98 1.24 35.86 35.86 0 00-3.13.64 4.85 4.85 0 00-.62.23l-.03.02a9.41 9.41 0 00-.9 1.5c-.25.54-.48 1.11-.7 1.69-.2.58-.42 1.17-.65 1.75-.1.3-.22.5-.35.79-.05.13-.11.32-.17.32h1.95c1.06-2.43 3.04-4.94 4.71-5.62.46-.19 7.85-1.06 12.73-1.06 1.81 0 3.07.07 3.73.33 2 .76 5.98 4.46 6.4 6.35h1.13a14.27 14.27 0 00-1.22-3.59 17.14 17.14 0 00-2.15-3.52zM34.2 35.25h-.01z" fill="#BA8449"/><path d="M38.26 39.33a19.02 19.02 0 00-2.28-3.87c-.23-.3-.49-.6-.76-.87l-.22-.2-.04-.05-.03-.02-.04-.03a1.4 1.4 0 00-.32-.17c-.21-.07-.42-.12-.64-.15-.75-.1-1.5-.15-2.26-.16-1.48-.03-2.95 0-4.42.07-2.92.13-5.84.34-8.75.64-1.46.15-2.92.32-4.37.54a39.39 39.39 0 00-3.3.65 6.65 6.65 0 00-.9.35 1.24 1.24 0 00-.42.34 10.91 10.91 0 00-1.1 1.67A20.95 20.95 0 006.39 43l-.06.23-.03.12c0 .02.04-.04.13.02l.03-.08h1.33c.06 0 .12-.19.17-.32.13-.3.24-.54.35-.83.24-.59.44-1.15.66-1.73.22-.58.44-1.14.7-1.68a10.25 10.25 0 01.9-1.5h.02a4.17 4.17 0 01.63-.24 38.23 38.23 0 013.12-.64c1.42-.22 2.86-.4 4.3-.56 2.89-.31 5.79-.54 8.68-.69a72.5 72.5 0 014.33-.09c.7 0 1.4.04 2.1.13.15.02.29.05.43.1l.04.01.17.17c.24.24.47.5.68.76a17.13 17.13 0 012.15 3.52c.56 1.14.97 2.35 1.2 3.6h1.15c-.11-.55-.3-1.31-.5-1.98-.23-.68-.5-1.35-.81-2z" fill="#895C2F"/><path d="M30.74 37.4c-.61-.24-1.81-.32-3.57-.32-4.91 0-12.16.86-12.56 1.01-1.49.61-3.34 3.05-4.38 5.21h26.6c-.41-1.62-4.11-5.14-6.1-5.9z" fill="#FFF8EF"/><path d="M30.9 36.97c-.66-.27-1.92-.35-3.73-.35-4.9 0-12.27.85-12.73 1.04-1.67.68-3.66 3.2-4.7 5.64h.5c1.02-2.16 2.87-4.58 4.36-5.19.4-.15 7.65-1.03 12.56-1.03 1.76 0 2.96.05 3.57.29 1.98.76 5.68 4.3 6.1 5.93h.46c-.4-1.9-4.39-5.56-6.39-6.33z" fill="#E5D1AE"/><path d="M39.98 37.24c-.27.56-1.72 1.95-2.94 1.6-.64-.17-.53 3.1.95 4.46h2.67c.73-1.08 1.88-4.64 2.01-5 .15-.44-2.41-1.61-2.69-1.06z" fill="#BA8449"/><path d="M42.8 38c-.02-.73-.48-1.2-1.25-1.38-.62-.14-1.45 0-1.66.39-.4.76-.92 1.73-3.43 1.84a.3.3 0 00.02.61c2.63-.11 3.39-1.11 3.94-2.13.4-.16.83-.16 1.23 0 .32.08.54.37.54.7.07 1.42-1.42 3.92-2.23 5.27h.73c.9-1.62 2.18-3.84 2.12-5.3z" fill="#895C2F"/><path d="M37.65 43.55c1.63-.38 3.07-1.99 3.2-4.32.02-.43-.87-1.26-.87-1.5 0-.22 2.74.06 2.87.69.12.63-1.7 4.5-2.31 5.12-.61.63-3.84.23-2.9.01z" fill="#C7893E" opacity=".15"/><path d="M38.94 35.68c-.2 1.4 2.57 3.36 4.44 3.3 1.57-.06 3.33-.79 3.07-1.65-.26-.85-1.78.16-1.9-.45-.13-.6 1.78-1.72 1.01-2.53-.7-.74-1.52 1.2-2.36.91-.83-.28.17-2.16-.86-2.27-1.22-.12-.76 2.58-1.67 2.63-.66.04-1.67-.4-1.73.06z" fill="#F8B1AB" stroke="#F38089" stroke-width="1.41"/><path d="M39.72 35.67c.3.22 1.36.53 1.54.13.19-.39.33-1.15.2-1.26-.08.36-.2 1.04-.6 1.2-.3.11-.93-.03-1.14-.07zM42.69 34.16c-.05.25-.25 1.43.36 1.6.54.14.91-.18 1.33-.86-.22.22-.8.7-1.25.51-.46-.19-.48-.65-.44-1.25z" fill="#F8B1AB" opacity=".5"/><path d="M40.01 37.35c3.12-1.51 3.76.95 3.6 1.46-1.21.21-3.4-1.06-3.6-1.46z" fill="#F8B1AB" opacity=".25"/><path d="M44.56 36.37c-.54.6-.27 1.09.07 1.14.45.08 1-.36.93-.36-.13 0-.97.29-1.13-.13-.13-.32.07-.5.13-.65z" fill="#F8B1AB" opacity=".5"/><path d="M8.95 40.35c10 5.72 29.9-.09 28.85-1.97-1.4-2.47-1.95-4.06-5.02-3.9-3.06.17-22.69 1.71-23.49 2.32-.8.6-1.66 2.8-.34 3.55z" fill="#C7893E" opacity=".15"/><path d="M30.78 5.96c4.5-.42 7.12-5.05 9.86-4.33-1.83 1.14-3.66 3.42-6.2 7.17-.6.88-4.88-2.73-3.66-2.84z" fill="#FFF8EF" stroke="#E5D1AE" stroke-width="2.12" stroke-linecap="round" stroke-linejoin="round"/><path d="M2.69 4.94c2.03-1.87 5.66-1.14 8.6-.08 1.68.6 3.85.11 4 .45.36.82-1.8 2.44-3.6 2.4-1.79-.02-4.74-3.34-9-2.77z" fill="#BA8449" stroke="#895C2F" stroke-width="1.41" stroke-linecap="round" stroke-linejoin="round"/><path d="M33.87 8.15c1.02.3 4.94-7.34 6.85-6.58 6.05 2.4-1.83 11.63-4.36 11.81-2.52.18-3.08-5.4-2.5-5.23zM11.98 7.25c-1.68.72-7.62-5.46-10.13-1.48C.2 8.39 5.2 13.68 8.78 14.25c3.58.57 4.08-7.38 3.2-7z" fill="#F8B1AB" stroke="#F38089" stroke-width="1.41"/><path d="M38.53 3.04c-.33 1.05-3.03 3.76-2.65 6.1.14.86 1.07 3.42 1.46 3.32.4-.1 1.38-.7 1.3-.57-.58.5-1.2.95-1.87 1.32-.47-.25-2.53-4.96-2.23-5.22.87-.78 3.61-4.9 4-4.95zM1.94 5.92c1.83-1.11 5.17-.64 7.12 1.25.69.67.89 2.98-.67 4.53-.62.62 3.67-2.2 3.69-3.02.01-.8-.27-1.05-.92-1.29-2.35-.87-4.83-2.86-6.99-2.81-.93 0-1.79.52-2.23 1.34z" fill="#F8B1AB"/><path d="M39.27 2.46c4.17 2.3-2.55 5.76-2.06 10.07-.87-.1-3.02-4.27-2.49-4.64.74-.51 3.85-5.63 4.55-5.43z" fill="#F8B1AB" opacity=".25"/><path d="M7.97 16.69l-.02.08c0 .05-.03.13-.07.27-.1.33-.23.66-.38.98a31.69 31.69 0 01-1.9 3.27 35.8 35.8 0 00-1.35 2.27c-.49.89-.9 1.82-1.2 2.8a7.15 7.15 0 001.04 6.7 8.84 8.84 0 003.04 2.67 26.17 26.17 0 008.7 3.14c1.64.29 3.3.38 4.96.27 3.42-.27 6.99-.6 10.45-1.53a17.79 17.79 0 004.95-2 8.25 8.25 0 002-1.79c.14-.17.27-.36.43-.54.16-.16.29-.36.38-.56.2-.42.36-.85.48-1.3.47-1.78.38-3.65.08-5.43-.33-1.78-.8-3.54-1.4-5.24-.57-1.7-1.24-3.36-1.9-5-.17-.41-.34-.8-.5-1.23a12.87 12.87 0 01-.38-1.32c-.2-.87-.35-1.7-.6-2.5a8.51 8.51 0 00-1-2.2 7 7 0 00-1.6-1.73 11.53 11.53 0 00-4.27-1.93c-1.48-.35-3-.56-4.51-.65a25.3 25.3 0 00-4.28.03c-1.3.12-2.58.44-3.78.96a9.97 9.97 0 00-4.77 4.4c-.41.77-.76 1.57-1.04 2.4a29.43 29.43 0 00-.8 2.81c-.07.22-.16.44-.27.65-.15.3-.27.6-.38.9l-.1.32v.03zm-.9-.22c.1-.45.15-.9.16-1.35.03-.25.06-.5.12-.74.04-.13.1-.26.17-.38l.16-.43a18.05 18.05 0 014.49-6.7c.9-.84 1.91-1.51 3.02-2a13.6 13.6 0 013.87-1.06c1.44-.17 2.9-.22 4.35-.16 1.56.04 3.11.2 4.64.51 1.58.35 3.2.89 4.63 1.93a7.83 7.83 0 012.96 4.32c.25.86.44 1.72.6 2.6l.14.62.18.6.47 1.22c.64 1.67 1.2 3.38 1.7 5.14.5 1.76.87 3.56 1.09 5.38.1.91.14 1.84.1 2.76a10.8 10.8 0 01-.92 3.99l-.14.31c-.05.11-.07.23-.12.33l-.14.32-.19.3a8.61 8.61 0 01-1.92 2.05 12.11 12.11 0 01-2.41 1.45c-.84.39-1.72.71-2.61.97-1.75.5-3.54.86-5.34 1.12a75.2 75.2 0 01-5.27.59c-1.74.13-3.49.04-5.2-.25a27.25 27.25 0 01-9.07-3.29c-.65-.38-1.27-.83-1.85-1.32-.3-.25-.57-.52-.82-.8-.24-.28-.47-.57-.68-.86a8.12 8.12 0 01-1.54-3.86 8.92 8.92 0 01.44-3.72c.35-1.01.79-2 1.31-2.94.48-.86.96-1.62 1.38-2.3a31 31 0 001.83-3.2 6.44 6.44 0 00.39-1.08l.02-.08z" fill="#E5D1AE"/><path d="M7.51 16.57c-.96 4.24-9.38 10.96-2.99 17.82 2.18 2.34 9.25 5.92 16.35 5.25 18.43-1.73 23.09-6.16 15.32-25.14-1.26-3.08.16-10.2-13.4-10.6-5.68-.17-12.52.6-15.28 12.67z" fill="#FFF8EF"/><path d="M11.18 8.56l-.04.06-.1.18c-.12.23-.21.47-.29.71a8.56 8.56 0 00-.27 3.03 13.7 13.7 0 004.87 9.54 12.6 12.6 0 003.04 1.83c1.18.49 2.41.82 3.68 1a19.25 19.25 0 005.1.02h.13l.12-.02.25-.05.5-.14c.7-.2 1.4-.4 2.12-.57 1.44-.32 2.99-.48 4.5-.15a6.9 6.9 0 012.62 1.18l.23.18.22.2c.15.12.27.26.42.4a3.02 3.02 0 01.38.47c.4.7.6 1.49.57 2.29-.01.78-.1 1.57-.28 2.33-.08.39-.18.77-.28 1.14l-.15.56-.08.27-.03.13v.02c-.06-.04.13.1-.14-.21-.38 0-.2.06-.25.04V33a11.29 11.29 0 001.63-6.5c-.1-1.5-.42-2.96-.97-4.36a17.94 17.94 0 00-1.47-3 3.79 3.79 0 01-.47-1.17c-.18-.79-.27-1.52-.39-2.25s-.22-1.44-.37-2.14a13.36 13.36 0 00-1.43-3.85A9.25 9.25 0 0032 6.83a11.67 11.67 0 00-3.35-1.66 18.3 18.3 0 00-3.49-.73 26.33 26.33 0 00-6.27.06c-1.6.2-3.15.68-4.6 1.4a8.87 8.87 0 00-2.96 2.44l-.15.23.01-.01zm-.46-.27l.17-.25a9.49 9.49 0 013.12-2.66c1.49-.77 3.1-1.3 4.75-1.57a27.13 27.13 0 016.48-.2c1.25.11 2.48.34 3.67.69 1.3.38 2.54.97 3.66 1.74 1.18.84 2.16 1.92 2.9 3.16.73 1.3 1.26 2.7 1.55 4.17.16.73.27 1.46.39 2.2.11.74.19 1.48.34 2.16a2.98 2.98 0 00.35.91 21.66 21.66 0 011.45 3.2c.54 1.5.83 3.07.86 4.65a11.84 11.84 0 01-2.04 6.83c-.07 0 .1.09-.3.09-.28-.34-.08-.22-.14-.28v-.06l.04-.15.1-.27.17-.54c.11-.37.22-.74.3-1.1.2-.75.3-1.5.33-2.26a3.98 3.98 0 00-.47-2.14 3.16 3.16 0 00-.74-.82l-.21-.18-.22-.17a5.93 5.93 0 00-2.51-1.13 9.76 9.76 0 00-4.34.29c-.7.17-1.38.4-2.07.62l-.52.16-.28.06-.13.03h-.14c-.36.04-.71.09-1.07.11-1.4.13-2.8.11-4.19-.05-1.33-.16-2.62-.5-3.86-1.01a13.1 13.1 0 01-3.21-1.9 14.42 14.42 0 01-5.02-10.05 9.17 9.17 0 01.34-3.22c.1-.28.2-.55.35-.8l.1-.2.05-.06z" fill="#E5BFA1"/><path d="M11.74 8.88l-.07.15-.02.03v.07c.01.1.05.22.1.31.18.31.4.6.67.84.6.55 1.25 1.06 1.94 1.5 1.42.93 2.94 1.77 4.45 2.58 3.05 1.6 6.2 3.09 9.32 4.6 1.56.75 3.13 1.51 4.68 2.3.78.4 1.55.82 2.31 1.23.77.41 1.53.86 2.27 1.35a14.91 14.91 0 011.6 1.25l.13.13.06.06.01.02.03.03.02.03.2.27.1.13.09.16.19.33a3.46 3.46 0 01.25.68c.06.23.1.46.13.7l.03.34v.35c-.05.9-.24 1.8-.57 2.63-.3.84-.67 1.63-1 2.42l-.54-.27a11.26 11.26 0 001.54-6.03c-.02-.27 0-.52-.04-.78l-.08-.79c-.03-.27-.1-.51-.14-.77a7.3 7.3 0 00-.17-.77l-.2-.76c-.07-.27-.18-.5-.26-.74l-.27-.75-.33-.72c-.12-.23-.21-.48-.34-.71l-.38-.7-.2-.34-.1-.2-.06-.12-.04-.09-.1-.19-.08-.24-.04-.12-.03-.1-.06-.21c-.27-1.12-.38-2.17-.59-3.22a18.16 18.16 0 00-.81-3.04c-.36-.96-.85-1.87-1.46-2.7a9.1 9.1 0 00-2.19-2.1 11.21 11.21 0 00-3.5-1.58l-.76-.2c-.51-.1-1.02-.21-1.54-.27l-.78-.1-.79-.05-.4-.03h-.4l-.78-.02h-.78c-.28 0-.55 0-.8.04l-.77.06-.77.1c-1.02.16-2.03.42-3 .77-.98.33-1.9.78-2.77 1.33l-.32.2-.3.24c-.21.15-.4.32-.58.48-.36.32-.67.68-.94 1.07l.03-.07zm-1.3-.74a8.8 8.8 0 012.57-2.43c.96-.63 2-1.14 3.07-1.53a18.2 18.2 0 013.31-.8l.84-.11.86-.06c.3-.03.55-.03.83-.03H22.76l.84.03.42.02.42.04.83.08.83.12c.55.07 1.11.21 1.66.33l.82.23a12.4 12.4 0 013.86 1.83c.95.67 1.78 1.5 2.45 2.44.66.93 1.18 1.95 1.55 3.02.37 1.06.64 2.14.82 3.25.19 1.08.29 2.16.5 3.17l.05.18.03.08.02.08.04.14.09.18.04.1s-.03-.06 0-.02v.02l.02.04.1.19.2.36.38.74c.13.24.22.5.33.76l.33.76.28.79c.08.27.19.52.25.79l.2.81c.07.27.12.54.16.81.04.27.1.54.12.81l.07.84c.02.27 0 .55 0 .83a11.9 11.9 0 01-1.81 6.34.3.3 0 01-.4.12.3.3 0 01-.15-.4c.32-.8.66-1.59.92-2.4.29-.77.44-1.6.47-2.43a3.44 3.44 0 00-.69-2.18l-.2-.25-.02-.03c-.02-.02.02.02 0 .02l-.02-.02-.05-.05-.1-.1a14.95 14.95 0 00-1.5-1.1 51.59 51.59 0 00-4.54-2.44c-1.56-.75-3.13-1.48-4.7-2.2-3.17-1.44-6.34-2.84-9.46-4.42a55.32 55.32 0 01-4.62-2.55c-.38-.24-.75-.5-1.12-.76-.37-.27-.73-.56-1.07-.88-.38-.34-.7-.74-.96-1.18a2.32 2.32 0 01-.28-1.32c0-.06.03-.11.05-.17l.05-.16.02-.07.02-.04.08-.14.05-.08z" fill="#895C2F"/><path d="M10.95 8.41c-2.52 3.87.5 18.78 16.33 16.77 1.68-.21 7.25-3.16 11 .98 2.05 2.28-.72 8.05 0 6.86.8-1.33 3.88-6.44-.72-14.31-1.5-2.52.96-14.7-14.91-14.83-6.1-.07-10.03 1.96-11.7 4.53z" fill="#BA8449"/><path d="M10.5 9.35c4.57-2.92 18.38-2.72 22.8 4.3 2.93 4.66-2.45 16.15-4.42 17.61-1.97 1.47-4.74 2.74-11.98 1.01-6.12-1.46 3.12-7.15-4.1-7.97-6.6-.76-7.25-11.76-2.3-14.95z" fill="#C7893E" opacity=".15"/><path d="M23.29 20.66c0 .35-.67.63-1.5.63s-1.5-.27-1.5-.63.67-.62 1.5-.62 1.5.27 1.5.62z" fill="#C7893E" opacity=".25"/><path d="M20.65 18.8c.35-.24 2.18-.16 2.4.07.23.22.75 1.19.16 1.59-.2.14-.22-.44-.67-.34-.54.11-.27.82-.69.8-.66-.01-.02-.76-.6-.86-.44-.08-.55.33-.73.3-.65-.11-.34-1.25.13-1.57z" fill="#F38089"/><path d="M21.66 18.8c.44-.02.88.04 1.3.18.24.28.37.63.38 1 0 .13-.07.25-.17.33l-.04-.05a.58.58 0 00-.48-.3h-.13a.71.71 0 00-.51.63c-.06.2-.07.25-.14.25-.18 0-.19-.08-.18-.3 0-.23 0-.55-.4-.62a.77.77 0 00-.13-.02c-.2 0-.39.09-.52.23l-.08.07a.27.27 0 01-.23-.24c-.04-.4.12-.8.42-1.05.3-.1.6-.14.9-.12v.02zm0-.16a2.4 2.4 0 00-1 .14c-.47.32-.77 1.46-.12 1.57h.02c.16 0 .27-.31.6-.31.03 0 .06-.04.1-.03.58.1-.06.83.6.83.42 0 .14-.67.68-.78h.1c.31 0 .37.38.5.38a.1.1 0 00.07 0c.59-.4.07-1.35-.15-1.58-.14-.14-.82-.21-1.42-.21h.02z" fill="#F38089"/><path d="M35.93 24.78c.68 4.38-4.82 9.9-12.22 11.02-7.4 1.13-12.87-5.46-13.55-9.84-.68-4.38 3.88-2.7 11.27-3.84 7.39-1.13 13.82-1.72 14.5 2.66z" fill="#F6E8D0" opacity=".25"/><g style="mix-blend-mode:multiply"><path d="M16.62 31.43c.14.19.32.33.53.43.2.1.42.17.64.23.44.1.9.18 1.36.2.9.08 1.81.08 2.72.03a30.6 30.6 0 004.06-.54c.44-.09.87-.22 1.28-.39.1-.04.2-.11.2-.14l.08-.33a14.46 14.46 0 01.73-1.93c.35-.84.74-1.66 1.13-2.49l.61-1.23.64-1.2c.21-.41.45-.82.69-1.21.12-.2.24-.4.38-.6l.22-.29.27-.3.44.77c-.84.27-1.67.54-2.52.78-.42.12-.85.22-1.27.33-.43.12-.86.21-1.28.31l-1.29.27-1.3.25c-.42.08-.86.14-1.3.2-.43.08-.87.13-1.3.18l-1.32.14c-.44.03-.87.08-1.31.1l-1.32.05h-1.32c-.44 0-.89-.04-1.33-.06l-.66-.04-.66-.08-.65-.09-.33-.04-.33-.09-1.3-.27.24-.84.55.29.14.08.12.1.26.17.24.2.23.2.22.2.2.24a5.76 5.76 0 01.69.97c.08.18.19.35.27.52l.23.54.2.55.18.54c.11.36.22.73.31 1.1l.31 1.11c.06.19.1.37.18.55.07.18.15.36.24.53zm0 0c-.1-.16-.18-.33-.25-.51-.08-.18-.13-.37-.2-.54l-.33-1.1c-.12-.37-.24-.74-.37-1.09l-.2-.54-.25-.51c-.1-.17-.19-.33-.27-.5l-.32-.47a4.17 4.17 0 00-.75-.82l-.2-.18-.25-.15-.23-.15a1.68 1.68 0 00-.24-.12l-.25-.11-.1-.05-.13-.04-.51-.14a.45.45 0 01-.33-.54c.06-.2.26-.34.47-.32l.1.02 1.26.23.3.05.33.04.63.08.64.08.64.03c.43.02.85.07 1.28.06h1.3l1.28-.05c.43 0 .86-.06 1.29-.1.43-.02.85-.08 1.28-.13.43-.05.85-.1 1.28-.17.43-.07.85-.12 1.28-.2.42-.09.85-.16 1.27-.24a65.69 65.69 0 002.52-.58 47.35 47.35 0 003.72-1.09c.2-.06.42.01.53.19.12.17.1.4-.05.55l-.04.04-.2.18-.2.24-.41.51a28.95 28.95 0 00-1.48 2.26l-.68 1.17a45 45 0 00-1.26 2.4 17.72 17.72 0 00-.78 1.87l-.1.32a.34.34 0 01-.15.19l-.17.09a7.1 7.1 0 01-1.34.35 25.32 25.32 0 01-4.08.44c-.92.04-1.83.03-2.74-.04a8.1 8.1 0 01-1.36-.23 3.37 3.37 0 01-.64-.24c-.22-.09-.4-.24-.54-.43z" fill="#D7CAB2" opacity=".5"/></g><g style="mix-blend-mode:multiply"><path d="M16.62 31.44c.14.18.32.32.53.42.2.1.42.17.64.23.45.1.9.18 1.36.21.9.07 1.81.08 2.72.02a29.68 29.68 0 004.06-.5c.44-.09.88-.21 1.3-.38.09-.05.2-.11.22-.18l.09-.33.22-.65a52.4 52.4 0 013.68-7.32l.4-.57.2-.27.28-.27.22.39c-.83.27-1.66.54-2.5.77l-1.27.34-1.28.3c-.43.1-.85.19-1.28.27l-1.29.24c-.43.08-.86.14-1.3.21-.43.07-.86.12-1.3.18-.43.05-.86.1-1.3.13-.44.03-.87.09-1.3.1l-1.33.04h-1.31c-.44 0-.88-.04-1.32-.06l-.66-.04-.65-.08-.66-.08-.32-.04-.33-.11-1.29-.31.12-.39.55.29.13.07.13.09.25.17.25.16.22.2.23.2.2.22a5.2 5.2 0 01.72.94c.08.17.19.33.26.5l.25.54.2.54.2.54.32 1.11c.1.37.2.74.32 1.1.05.19.1.37.18.55.07.17.15.34.24.5zm0 0c-.1-.17-.18-.34-.25-.52-.08-.18-.13-.36-.2-.54l-.32-1.1c-.1-.37-.23-.74-.35-1.09l-.2-.54-.24-.52c-.08-.17-.18-.34-.27-.5l-.3-.49a5.7 5.7 0 00-.72-.87l-.2-.19-.25-.17-.22-.17c-.08-.05-.16-.1-.24-.13l-.25-.13-.12-.07-.13-.04-.53-.18a.23.23 0 01-.14-.28.2.2 0 01.24-.12l.02.04 1.27.2.32.05.32.03.64.08.64.07.65.04c.43.02.86.07 1.3.06h1.3l1.3-.05c.43 0 .86-.06 1.3-.09.43-.03.86-.08 1.29-.14.43-.05.85-.1 1.28-.17.43-.07.86-.12 1.29-.2.42-.09.85-.16 1.27-.24l1.27-.27 1.27-.3 1.25-.34c.84-.23 1.67-.49 2.48-.76a.23.23 0 01.3.14c.02.08 0 .17-.06.23l-.02.02-.22.2-.2.26a26.97 26.97 0 00-1.84 2.84 50.7 50.7 0 00-1.9 3.61l-.54 1.25-.23.63-.1.33a.27.27 0 01-.13.15 7.03 7.03 0 01-1.49.45 29.44 29.44 0 01-4.08.47c-.91.05-1.82.04-2.73-.04a8.12 8.12 0 01-1.36-.23 3.37 3.37 0 01-.65-.23c-.2-.1-.39-.25-.52-.44z" fill="#D7CAB2" opacity=".5"/></g><path d="M16.62 31.44c1.18 1.82 10.72.56 10.88-.15.42-1.86 3.84-8.37 4.95-9.28-1.98.68-12.22 3.94-20.56 1.97 3.78 1.2 3.81 6.05 4.73 7.46z" fill="#333"/><path d="M31.2 22.9c-1.44 2.14-3.64 6.34-4.1 8.17-.57.3-3.54.85-6.46.85-2.33 0-3.4-.37-3.63-.73a7.52 7.52 0 01-.61-1.7c-.4-1.41-.93-3.31-2.25-4.65 1.2.15 2.4.22 3.6.22a49.3 49.3 0 0013.45-2.17zm1.26-.89c-1.53.54-8 2.6-14.7 2.6-1.98.01-3.94-.2-5.86-.63 3.77 1.2 3.8 6.05 4.72 7.46.45.7 2.12.94 4.02.94 3.08 0 6.77-.65 6.87-1.08.42-1.86 3.84-8.37 4.95-9.28z" fill="#333"/><path d="M16.05 29.85c.63.54 2.8-1.87 2.56-2.8-.58-2.38-3.22-2.05-4.19-2.2-.96-.15-2.83-.97-2.05-.73 2.23.68 6.5.38 7 .54.65.19 1.1 2.78.46 3.36-.63.58-2.86 3.96-3.2 3.38-.33-.58-.41-1.2-.58-1.55zM26.15 27.05c.51.5 1.85 1.08 2.69.78-.15.47-.36.92-.6 1.34-5.8-.5-4.22-4.55-3.8-4.93.44-.37 5.8-1.13 6.84-1.35-1.58.35-6.9 2.44-5.13 4.16z" fill="#818181"/><path d="M20.57 32.4c-1.97 0-3.27-.28-3.76-.82-.04-.05-.05-.32.18-.83a6.18 6.18 0 015.17-3.59l.58-.02c3.44 0 5.51 1.74 5.52 2.05l-.17.4c-.19.45-.47 1.12-.72 1.86-.25.25-3.71.94-6.8.94z" fill="#F8B1AB"/><path d="M22.74 27.07v.22c3 0 5.13 1.47 5.35 1.9l-.14.34c-.19.44-.46 1.09-.7 1.81-.5.27-3.71.9-6.7.9-1.86 0-3.15-.27-3.62-.74-.02-.16.14-.8.7-1.6a6.03 6.03 0 014.53-2.59l.58-.01V27v.07zm0-.08c-.2 0-.4 0-.6.02-4.02.24-5.88 4.2-5.46 4.66.6.64 2.13.86 3.87.86 3.1 0 6.85-.7 6.96-1.03.34-1.03.73-1.9.89-2.28.15-.37-2.18-2.24-5.67-2.24V27z" fill="#F38089"/><path d="M16.76 31.45c-.27 1.24 7.32-4.8 11.42-1.9.82-1.12-3.7-3.02-6.34-2.58-2.23.37-4.52 1.8-5.08 4.48z" fill="#F8B1AB"/><path d="M18.3 24.96c.36.69 1.1 4 1.4 4.1.3.08 2.18.6 2.45.49.27-.12.25-.76.54-.57.23.15.35.45.58.34.4-.2 1.63-.95 1.82-1.29.2-.34.16-2.23 0-3.75-.82.34-5.43.84-6.8.68z" fill="#FEF6E4"/><path d="M24.94 24.49c.14 1.55.14 3.2 0 3.47a7.23 7.23 0 01-1.8 1.22c-.03 0-.1-.07-.15-.13a1.42 1.42 0 00-.23-.2.34.34 0 00-.18-.07c-.2 0-.27.2-.35.36-.04.1-.09.23-.15.27h-.06c-.7-.1-1.38-.24-2.05-.44l-.2-.06c-.15-.16-.46-1.23-.68-2.01-.2-.7-.39-1.35-.54-1.77h.42c1.75 0 4.96-.36 5.98-.65h-.01zm.15-.22c-.7.3-4.3.71-6.11.71-.22 0-.45 0-.67-.03.35.7 1.09 4.02 1.4 4.1.3.09 1.82.51 2.31.51l.12-.01c.23-.1.25-.6.44-.6.03 0 .07 0 .1.03.19.12.3.36.47.36.03 0 .06 0 .1-.02.4-.2 1.63-.95 1.82-1.29.2-.34.15-2.23 0-3.75h.02z" fill="#FFD085"/><path d="M18.83 26.55c-.13-1.22 5.58-1.62 6.3-1.52 0-.3-.06-.5-.05-.82-.94.48-6.06.97-6.77.77.21.5.38 1.04.52 1.57z" fill="#EADCBE"/><path d="M21.68 25.63a14.42 14.42 0 01.6 1.62c.13.4.28.8.36 1.12l.15.51-.39.12-.12-.54a43.25 43.25 0 00-.58-2.28l-.16-.5.14-.05z" fill="#FFD085"/><path d="M2.35 6.31c3.03.77 2.54 5.98 4.35 6.39 1.81.4 4.17-4.29 4.4-5.32C7.6 5.9 6 4.16 3.5 4.68c-.83.15-1.99 1.41-1.14 1.63z" fill="#F8B1AB" opacity=".4"/><path d="M10.75 21.55c3.8.3 6.95.45 8.07-.71 1.11-1.17 1.52-6.31 3.37-6.19 1.55.1 2.08 6.82 3.1 7.02 1.01.2 8.15 2.15 9.92.33 1.76-1.82 2.59-2.95 2.17-4.06-.4-1.1-10.83-4.66-12.96-4.85-2.12-.2-16.54 1.59-16.9 2.5-.37.9-.75.78-.68 1.75.13 1.8.1 3.9 3.9 4.2z" fill="#C7893E" opacity=".5"/><path d="M21.42 13.91c.27 0 1.36-.08 1.6.11 1.38 1.09 1.32 5.47 2.77 6.85 1.3 1.23 8.3 2.12 9.52.72 1.22-1.4 3-5.64 3.43-5.95.41-.3 1.33-.54 1.6-.94.26-.4.03-2.27-.61-2.2-.65.08-1.87.5-2.63.27-.76-.22-4.45-2.54-13.74-1.13-.8.1-1.62.04-2.4-.16-.61-.15-4.11-2.16-13.44-.83-.93.13-2.2-.27-2.66-.23-.46.05-.6 1.48-.42 1.86.19.38 1.14.68 1.26 1.14.11.45.95 4.92 3.16 6.77 2.32 1.96 8.3.6 8.83.23 2.4-1.7 2.93-6.51 3.73-6.51z" fill="#333"/><path d="M13.4 10.66c4.14 0 6.26.82 7.06 1.13l.38.14a7.38 7.38 0 002.57.16c1.82-.28 3.66-.43 5.5-.43 4.37 0 6.64.97 7.62 1.38.2.09.33.15.45.18.21.06.44.1.66.09.52-.02 1.02-.1 1.52-.22l.57-.11c.22.23.34 1.25.23 1.5-.23.18-.5.33-.78.42a4 4 0 00-.71.38c-.25.17-.5.66-1.25 2.12-.7 1.4-1.58 3.12-2.25 3.9-.24.26-1.07.53-2.7.53-2.41 0-5.47-.64-6.16-1.3-.63-.6-.97-1.99-1.3-3.32-.35-1.5-.7-2.9-1.52-3.54-.2-.17-.55-.23-1.18-.23h-.71c-.64 0-.92.8-1.4 2.1-.52 1.53-1.26 3.57-2.57 4.5-.3.18-2.45.73-4.63.73-1.66 0-2.92-.32-3.64-.93-.88-.73-2.1-2.43-2.97-6.35l-.04-.19c-.1-.42-.52-.69-.88-.92a2.38 2.38 0 01-.41-.3c-.07-.4-.02-.82.13-1.2.21.01.42.04.63.08a9.29 9.29 0 001.97.16c1.92-.3 3.86-.45 5.8-.46zm0-.46c-1.98.01-3.94.16-5.88.45a3 3 0 01-.42.03c-.82 0-1.75-.27-2.18-.27h-.07c-.45.04-.6 1.48-.42 1.86.2.37 1.15.68 1.26 1.13.11.46.95 4.92 3.16 6.78.93.78 2.43 1.03 3.94 1.03 2.28 0 4.57-.58 4.9-.81 2.4-1.7 2.93-6.51 3.73-6.51l.7-.02c.37 0 .76.03.9.13 1.38 1.08 1.32 5.47 2.77 6.85.82.78 4 1.43 6.48 1.43 1.41 0 2.6-.2 3.04-.7 1.22-1.4 3-5.65 3.43-5.96.41-.3 1.33-.54 1.6-.94.26-.41.04-2.2-.58-2.2h-.03c-.52.06-1.38.33-2.1.33-.18 0-.37-.02-.54-.07-.59-.17-2.91-1.58-8.19-1.58a37.4 37.4 0 00-5.55.45 6.92 6.92 0 01-2.4-.15c-.45-.07-2.56-1.26-7.56-1.26z" fill="#1A1A1A"/><path clip-rule="evenodd" d="M8.28 13.46c-.2.27-.34 4.31 1.36 5.4 1.13.73 5.9.57 6.86.04 1.5-.83 2.98-4.67 2.56-5.22-.69-.9-5.64-2.12-9.37-1.17-.54.19-1.03.52-1.4.95z" stroke="#333" stroke-width="2.82" opacity=".5"/><path d="M8.28 13.46c-.2.27-.34 4.31 1.36 5.4 1.13.73 5.9.57 6.86.04 1.5-.83 2.98-4.67 2.56-5.22-.69-.9-5.64-2.12-9.37-1.17-.54.19-1.03.52-1.4.95z" fill="#fff"/><path clip-rule="evenodd" d="M36.32 15.22c.17.3-.23 4.33-2.07 5.2-1.2.57-5.92-.2-6.8-.85-1.38-1.02-2.33-5.02-1.85-5.5.8-.82 5.87-1.39 9.44.03.51.26.95.65 1.28 1.12z" stroke="#333" stroke-width="2.82" opacity=".5"/><path d="M36.32 15.22c.17.3-.23 4.33-2.07 5.2-1.2.57-5.92-.2-6.8-.85-1.38-1.02-2.33-5.02-1.85-5.5.8-.82 5.87-1.39 9.44.03.51.26.95.65 1.28 1.12z" fill="#fff"/><path d="M13.72 15.9c-.13.89-.58 1.55-1 1.5-.43-.07-.67-.82-.55-1.71.13-.89.58-1.54 1-1.48.43.06.67.82.55 1.7zM31.99 16.93c.1.89-.18 1.62-.6 1.68-.43.06-.86-.63-.95-1.52-.1-.88.18-1.64.6-1.68.44-.04.86.64.95 1.52z" fill="#010101"/><path d="M4.92 11.71c.51.35 1 .14 1.12.82.11.67 1.7 6.62 3.67 7.3 3.24 1.12 7.32.02 7.87-.33.54-.35 3.14-6.11 3.58-6.34.43-.23 1.81.03 2.1.15.9.38 2.54 6.63 3 6.95 2 1.4 8.4 1.29 8.7.9.3-.37 2.72-5.84 3.14-6.16.63-.48 2.07-.8 2.11-.59.04.2-1.16.4-1.52.85-.36.46-2.78 5.68-3.54 6.13-.75.46-6.36 1.2-9.19-.77-1.36-.95-1.88-6.65-2.95-6.95a3.07 3.07 0 00-1.71-.05c-.67.43-1.6 5.26-3.6 6.49-.8.49-7.02 1.68-8.87-.25-3.46-3.6-2.42-6.81-3.53-7.29-.78-.32-.94-.72-.92-1 .02-.28.25-.05.54.14zM4.97 10.5c-.36-.13 1.56.66 2.27.62.71-.05 1.9-.54 2.29-.67.38-.12-1.8.27-2.33.25-.53-.02-2.02-.12-2.23-.2zM19.86 11.56c.66.3.97 1.04 1.63 1.12.66.08 1.42.19 1.79-.02.48-.29 1-.53 1.52-.73.28-.06-2 .3-2.83.22-.9-.08-1.87-.55-2.11-.59zM36.13 12.45c-.27-.11 1 .93 1.39.87.38-.05 1.08-.49 1.36-.58.23-.08-.92.22-1.26.17-.5-.12-1-.27-1.49-.46z" fill="#333" opacity=".3"/><path d="M7.56 12.87c1.7-1.67 5.73-1.1 6.46-.95-4.84.35-4.93.71-5.77 1.56a9.82 9.82 0 00.47 4.76c-.84-.48-1.72-4.81-1.16-5.37zM37.24 14.66c-1.46-1.87-5.53-1.84-6.28-1.78 4.75.98 4.79 1.35 5.52 2.3a9.86 9.86 0 01-1.09 4.65c.88-.36 2.34-4.54 1.85-5.17z" fill="#333" opacity=".3"/><path d="M8.33 16.24c.17-1.98.34-3.55 4.26-3.67 3.13-.1 5.63.63 6 1.38.23.47.05 2.57-1.52 4.5 1.02-.9 2.62-4.43 1.92-4.88-2.55-1.62-7.61-1.66-9.5-.99-.48.21-.91.52-1.26.92-.05.5-.06 2.46.1 2.74z" fill="#D0DDDC"/><path d="M8.45 16.37c.6 3.82 7.64 2.66 8.06 2.51-.03.21-3.7 1.23-6.78.05-1.24-.47-1.35-3-1.28-2.56zM35.99 17.95c.08-1.98.1-3.57-3.77-4.17-3.1-.48-5.67-.05-6.13.64-.28.44-.36 2.55.96 4.65-.9-1.02-2.06-4.7-1.31-5.06 2.72-1.3 7.77-.73 9.55.17.45.27.84.63 1.14 1.07-.01.49-.25 2.44-.44 2.7z" fill="#D0DDDC"/><path d="M35.86 18.06c-1.07 3.73-7.91 1.72-8.3 1.51 0 .22 3.5 1.67 6.7.88 1.3-.32 1.72-2.81 1.6-2.39z" fill="#D0DDDC"/><path d="M13.37 15a.23.23 0 100-.45.23.23 0 100 .46zM31.49 16.07c.12 0 .22-.1.22-.23 0-.12-.1-.23-.22-.23a.23.23 0 100 .46z" fill="#fff" opacity=".25"/><path d="M5.03 11.47c.54.62.88.68 1.63.58 7.14-.93 11.08-.89 13.02.93.43.4.2-1.15-.6-1.35-6.02-1.58-10.38-.16-11.3-.05-.9.11-1.59-.1-2.75-.11zM24.75 12.38c-.16.16-.1 1.8.68 1.19 2.25-1.78 6.95-1.35 10.22-.27-.54-1.02-4.35-1.74-6.5-1.7-1.02.02-3.96.33-4.4.78z" fill="#D0DDDC" opacity=".1"/><path d="M37.54 13.89c.44 0 .8-.09.8-.2 0-.1-.36-.2-.8-.2-.45 0-.8.1-.8.2 0 .11.35.2.8.2zM7.42 11.7c0 .07-.38.07-.82 0-.44-.05-.78-.18-.77-.25.02-.07.38-.06.82 0 .44.06.78.19.77.26z" fill="#D0DDDC"/></svg>