<svg width="48" height="48" viewBox="0 0 48 48" fill="none" xmlns="http://www.w3.org/2000/svg"><path d="M42.86 24h-12v3.43h8.23a15.54 15.54 0 01-9.95 11.14L9.43 18.86c2.06-6 7.88-10.29 14.57-10.29 5.14 0 9.77 2.57 12.69 6.52l2.57-2.23A18.9 18.9 0 0024 5.14 18.91 18.91 0 005.66 19.9L28.29 42.5c8.22-2.05 14.57-9.6 14.57-18.51zm-37.72.17c0 4.8 1.89 9.43 5.49 13.03a18.6 18.6 0 0013.03 5.49L5.14 24.17z" fill="#fff"/><path d="M24 0C10.8 0 0 10.8 0 24s10.8 24 24 24 24-10.8 24-24S37.2 0 24 0zM10.63 37.37a18.6 18.6 0 01-5.49-13.03l18.69 18.52c-4.8-.17-9.6-1.89-13.2-5.49zm17.48 4.97L5.66 19.9A18.91 18.91 0 0124 5.14a18.9 18.9 0 0115.26 7.72l-2.57 2.23A15.83 15.83 0 0024 8.57 15.6 15.6 0 009.43 18.86l19.71 19.71c4.97-1.71 8.75-6 9.95-11.14h-8.23V24h12c0 8.91-6.35 16.46-14.75 18.34z" fill="#639"/></svg>