<svg width="48" height="48" viewBox="0 0 48 48" fill="none" xmlns="http://www.w3.org/2000/svg"><path d="M43.4 19.86a4.4 4.4 0 014.54 4c.87 11.17-9.36 23.68-23.77 24.08A23.81 23.81 0 01.01 23.82c0-2.32 1.92-4.2 4.23-4.2a4.19 4.19 0 014.18 4.2 15.4 15.4 0 0015.54 15.74c9.56-.27 15.78-8.55 15.46-15.3a4.2 4.2 0 013.97-4.4z" fill="url(#paint0_linear)"/><path d="M32.94 24.14a4.3 4.3 0 014.33-4.29h6.3a4.36 4.36 0 014.37 4.3c0 2.37-1.99 4.29-4.38 4.29h-6.3a4.3 4.3 0 01-4.32-4.3zM19.73 24.15a4.3 4.3 0 118.6 0 4.3 4.3 0 01-8.6 0z" fill="#00A672"/><path fill-rule="evenodd" clip-rule="evenodd" d="M28.2 4.05a4.19 4.19 0 01-4.01 4.37c-9.97.42-16.05 8.25-15.76 15.69a4.16 4.16 0 01-3.97 4.35 4.32 4.32 0 01-4.43-4.09C-.46 12.25 9.63.27 23.83.04c2.32-.1 4.27 1.7 4.36 4.01z" fill="#00A672"/><defs><linearGradient id="paint0_linear" x1="24" y1="19.62" x2="24" y2="47.95" gradientUnits="userSpaceOnUse"><stop stop-color="#00583E"/><stop offset="1" stop-color="#00835C"/></linearGradient></defs></svg>
