<svg width="16" height="32" viewBox="0 0 16 32" fill="none" xmlns="http://www.w3.org/2000/svg">
  <mask id="a" maskUnits="userSpaceOnUse" x="7" y="23" width="3" height="9">
    <path d="M7.26 23.88h2.16V32H7.26v-8.12z" fill="#fff"/>
  </mask>
  <g mask="url(#a)">
    <path d="M8.07 23.88c-.18 2.1-.45 3.62-.72 4.18l-.09-.08c.72 1.37.63 3.7.63 3.7l.99.32s-.27-2.25 0-3.38c.09-.32.27-.64.54-.88h-.1c-.98-.4-1.25-2.17-1.25-3.86z" fill="#C2BFBF"/>
  </g>
  <path d="M15.71 12.7C13.83 5.3 9.35 2.9 8.9 1.93 8.45 1.37 8.18.73 7.82.08V0c0 .64 0 .88-.71 1.6C6.39 2.26.47 6.44.02 14.88c-.45 7.8 6.37 12.46 7.26 13.1l.1.09c.26-.57.53-2.1.71-4.18 0 1.68.27 3.45 1.26 3.85h.09c.36-.24.8-.56 1.16-.88a14.4 14.4 0 0 0 5.11-14.15z" fill="#68B245"/>
  <path d="M15.71 12.7C13.83 5.3 9.35 2.9 8.9 1.93 8.45 1.37 8.18.73 7.82.08c.45 1.53.36 13.9.45 15.43.09 2.74 0 5.55-.18 8.37 0 1.68.27 3.45 1.26 3.85h.09c.36-.24.8-.56 1.16-.88a14.4 14.4 0 0 0 5.11-14.15z" fill="#599642"/>
</svg>
