<svg width="42" height="48" viewBox="0 0 42 48" fill="none" xmlns="http://www.w3.org/2000/svg">
  <path fill-rule="evenodd" clip-rule="evenodd" d="M20.74 19.26c.13-.08.3-.08.43 0l3.62 2.1c.13.07.22.22.22.37v4.2c0 .15-.09.3-.22.38l-3.62 2.1a.43.43 0 0 1-.43 0l-3.62-2.1a.44.44 0 0 1-.22-.38v-4.2c0-.15.08-.3.22-.38l3.62-2.09z" fill="#689F63"/>
  <mask id="a" maskUnits="userSpaceOnUse" x="0" y="0" width="42" height="48">
    <path d="M19.87.3L1.13 11.16c-.7.4-1.13 1.16-1.13 1.97v21.73c0 .81.43 1.56 1.13 1.97L19.87 47.7c.7.4 1.56.4 2.26 0l18.74-10.87c.7-.4 1.13-1.16 1.13-1.97V13.13c0-.81-.43-1.56-1.13-1.97L22.13.3c-.7-.4-1.56-.4-2.27 0" fill="#fff"/>
  </mask>
  <g mask="url(#a)">
    <path d="M60.65 9.28L7.85-16.7l-27.07 55.45 52.8 25.98L60.64 9.28z" fill="url(#paint0_linear)"/>
    <mask id="b" maskUnits="userSpaceOnUse" x="0" y="0" width="42" height="48">
      <path d="M.44 36.18c.18.23.4.43.67.59l16.08 9.32 2.67 1.54a2.26 2.26 0 0 0 1.75.22l19.76-36.33c-.15-.17-.32-.3-.52-.42L28.58 3.98 22.09.24c-.18-.1-.38-.19-.58-.24L.44 36.18z" fill="#fff"/>
    </mask>
    <g mask="url(#b)">
      <path d="M-22.37 16.92L14.9 67.58 64.2 31 26.93-19.65l-49.3 36.57z" fill="url(#paint1_linear)"/>
    </g>
    <mask id="c" maskUnits="userSpaceOnUse" x="0" y="0" width="42" height="48">
      <path d="M20.48 0c-.32.04-.63.14-.9.3L.88 11.13l20.15 36.84c.28-.04.55-.13.8-.28l18.74-10.86c.57-.34.97-.9 1.1-1.56L21.12.05A2.34 2.34 0 0 0 20.5 0" fill="#fff"/>
    </mask>
    <g mask="url(#c)">
      <path d="M-.14 0v48.22h42.26V-.01H-.14z" fill="url(#paint2_linear)"/>
    </g>
  </g>
  <defs>
    <linearGradient id="paint0_linear" x1="33.82" y1="-3.75" x2="6.74" y2="51.29" gradientUnits="userSpaceOnUse">
      <stop offset=".3" stop-color="#3E863D"/>
      <stop offset=".5" stop-color="#55934F"/>
      <stop offset=".8" stop-color="#5AAD45"/>
    </linearGradient>
    <linearGradient id="paint1_linear" x1="-3.34" y1="42.54" x2="45.89" y2="6.31" gradientUnits="userSpaceOnUse">
      <stop offset=".57" stop-color="#3E863D"/>
      <stop offset=".72" stop-color="#619857"/>
      <stop offset="1" stop-color="#76AC64"/>
    </linearGradient>
    <linearGradient id="paint2_linear" x1="-.12" y1="24.11" x2="42.12" y2="24.11" gradientUnits="userSpaceOnUse">
      <stop offset=".16" stop-color="#6BBF47"/>
      <stop offset=".38" stop-color="#79B461"/>
      <stop offset=".47" stop-color="#75AC64"/>
      <stop offset=".7" stop-color="#659E5A"/>
      <stop offset=".9" stop-color="#3E863D"/>
    </linearGradient>
  </defs>
</svg>
