<svg width="48" height="34" viewBox="0 0 48 34" fill="none" xmlns="http://www.w3.org/2000/svg"><g clip-path="url(#clip0)"><path d="M28.8 33.37L9.6.11h9.6l19.2 33.26h-9.6z" fill="#FF4081"/><path d="M28.8 33.37l4.8-8.31 4.8 8.31h-9.6z" fill="#fff" fill-opacity=".2"/><path d="M24 25.06l4.8 8.31 4.8-8.31H24z" fill="#fff" fill-opacity=".1"/><path d="M19.2 16.74l4.8 8.32 4.8-8.32h-9.6z" fill="#000" fill-opacity=".1"/><path d="M19.2 16.74L24 8.43l4.8 8.31h-9.6z" fill="#000" fill-opacity=".2"/><path d="M14.4 8.43l4.8 8.31L24 8.43h-9.6z" fill="#000" fill-opacity=".3"/><path d="M14.4 8.43L19.2.1 24 8.43h-9.6z" fill="#000" fill-opacity=".4"/><path d="M9.6.11l4.8 8.32L19.2.1H9.6z" fill="#000" fill-opacity=".5"/><path d="M9.6 33.37L0 16.74l4.8-8.31 14.4 24.94H9.6z" fill="#536DFE"/><path d="M9.6 33.37l4.8-8.31 4.8 8.31H9.6z" fill="#fff" fill-opacity=".2"/><path d="M4.8 25.06l4.8 8.31 4.8-8.31H4.8z" fill="#fff" fill-opacity=".1"/><path d="M0 16.74l4.8 8.32 4.8-8.32H0z" fill="#000" fill-opacity=".1"/><path d="M0 16.74l4.8-8.31 4.8 8.31H0z" fill="#000" fill-opacity=".2"/><path d="M9.6 16.74L4.8 8.43 9.6.1l4.8 8.32-4.8 8.31z" fill="#303F9F"/><path d="M14.4 8.43L9.6.1 4.8 8.43h9.6z" fill="#000" fill-opacity=".2"/><path d="M38.4 33.37l-4.8-8.31 4.8-8.32 4.8 8.32-4.8 8.31z" fill="#3F51B5"/><path d="M43.2 25.06l-4.8 8.31-4.8-8.31h9.6z" fill="#000" fill-opacity=".2"/><path d="M43.2 25.06L28.8.1h9.6L48 16.74l-4.8 8.32z" fill="#7986CB"/><path d="M38.4 16.74l4.8 8.32 4.8-8.32h-9.6z" fill="#fff" fill-opacity=".2"/><path d="M38.4 16.74l4.8-8.31 4.8 8.31h-9.6z" fill="#fff" fill-opacity=".1"/><path d="M33.6 8.43L38.4.1l4.8 8.32h-9.6z" fill="#000" fill-opacity=".1"/><path d="M28.8.11l4.8 8.32L38.4.1h-9.6z" fill="#000" fill-opacity=".2"/></g><defs><clipPath id="clip0"><path fill="#fff" d="M0 0h48v33.38H0z"/></clipPath></defs></svg>