<svg width="42" height="48" viewBox="0 0 42 48" fill="none" xmlns="http://www.w3.org/2000/svg"><g clip-path="url(#clip0)"><path d="M20.76 0L41.5 11.98v23.97L20.76 47.94 0 35.95V11.98L20.76 0z" fill="#673AB8"/><path d="M5.65 35.75c2.76 3.54 11.53.84 19.81-5.62 8.28-6.47 13.01-14.33 10.25-17.86-2.76-3.53-11.52-.84-19.8 5.62C7.63 24.36 2.89 32.22 5.65 35.75zm1.18-.92c-.91-1.17-.51-3.47 1.23-6.36 1.84-3.05 4.95-6.42 8.77-9.4 3.81-2.98 7.83-5.19 11.23-6.23 3.23-1 5.56-.82 6.48.35.91 1.17.51 3.47-1.23 6.36-1.84 3.05-4.96 6.42-8.77 9.4-3.81 2.98-7.83 5.19-11.23 6.23-3.23 1-5.56.82-6.48-.35z" fill="#fff"/><path d="M35.71 35.75c2.76-3.53-1.97-11.39-10.25-17.86-8.28-6.46-17.05-9.15-19.8-5.62C2.88 15.8 7.62 23.66 15.9 30.13c8.28 6.46 17.04 9.16 19.8 5.62zm-1.17-.92c-.92 1.17-3.25 1.34-6.48.35-3.4-1.04-7.42-3.25-11.23-6.23-3.82-2.98-6.93-6.35-8.77-9.4-1.74-2.9-2.14-5.19-1.23-6.36.92-1.17 3.25-1.34 6.48-.35 3.4 1.04 7.42 3.25 11.23 6.23 3.81 2.98 6.93 6.35 8.77 9.4 1.74 2.9 2.14 5.2 1.23 6.36z" fill="#fff"/><path d="M20.68 27.19a3.18 3.18 0 100-6.36 3.18 3.18 0 000 6.36z" fill="#fff"/></g><defs><clipPath id="clip0"><path fill="#fff" d="M0 0h41.51v48H0z"/></clipPath></defs></svg>
