<svg width="32" height="32" viewBox="0 0 32 32" fill="none" xmlns="http://www.w3.org/2000/svg">
  <path fill-rule="evenodd" clip-rule="evenodd" d="M31.59 16.66l-2.36-2.37a1 1 0 0 1-.3-.7v-2.9c0-2.67-.27-3.64-.8-4.62a5.45 5.45 0 0 0-2.26-2.27c-.97-.52-1.94-.8-4.6-.8h-3.83a.2.2 0 0 1-.14-.34L19.66.29a1 1 0 0 1 .71-.29h1.33c3.56 0 4.85.37 6.15 1.07a7.26 7.26 0 0 1 3.01 3.02c.7 1.3 1.07 2.6 1.07 6.17v6.26a.2.2 0 0 1-.24.2.2.2 0 0 1-.1-.06zm-16.28 15l2.36-2.37a1 1 0 0 1 .7-.29h2.9c2.66 0 3.63-.28 4.6-.8a5.45 5.45 0 0 0 2.27-2.27c.52-.98.8-1.95.8-4.62v-3.83a.2.2 0 0 1 .34-.14l2.36 2.37a1 1 0 0 1 .3.7v1.34c0 3.56-.38 4.85-1.08 6.16a7.26 7.26 0 0 1-3.01 3.02c-1.3.7-2.6 1.07-6.15 1.07h-6.25a.2.2 0 0 1-.14-.34zM.34 15.34l2.36 2.37a1 1 0 0 1 .3.7v2.9c0 2.67.27 3.64.8 4.62.5.97 1.3 1.76 2.26 2.27.97.52 1.94.8 4.6.8h3.83a.2.2 0 0 1 .14.34l-2.36 2.37a1 1 0 0 1-.7.29h-1.34c-3.55 0-4.84-.37-6.15-1.07a7.26 7.26 0 0 1-3.01-3.02C.37 26.6 0 25.3 0 21.74v-6.26a.2.2 0 0 1 .34-.14zM14.26 2.71a1 1 0 0 1-.7.29h-2.9c-2.66 0-3.63.28-4.6.8a5.45 5.45 0 0 0-2.27 2.27c-.52.98-.8 1.95-.8 4.62v3.83a.2.2 0 0 1-.34.14L.3 12.29a1 1 0 0 1-.29-.7v-1.33C0 6.69.37 5.4 1.07 4.09a7.26 7.26 0 0 1 3.01-3.02C5.38.37 6.68 0 10.23 0h6.25a.2.2 0 0 1 .14.34l-2.36 2.37zm12.34 8.97L23.4 8.59A2 2 0 0 0 21.95 8h-9.5a.2.2 0 0 1-.14-.34l2.37-2.37a1 1 0 0 1 .7-.29h7.57a4 4 0 0 1 4 4v2.53a.2.2 0 0 1-.35.15zm-6.32 14.98l3.07-3.22a1.99 1.99 0 0 0 .6-1.44v-9.52a.2.2 0 0 1 .34-.14l2.36 2.37a1 1 0 0 1 .3.7v7.6a4 4 0 0 1-4 4h-2.53a.2.2 0 0 1-.14-.35zM5.33 20.32l3.22 3.09a1.99 1.99 0 0 0 1.43.59h9.5a.2.2 0 0 1 .14.34l-2.36 2.37a1 1 0 0 1-.71.29H8.98a4 4 0 0 1-4-4v-2.53a.2.2 0 0 1 .35-.15zm6.32-14.98L8.58 8.56a2 2 0 0 0-.6 1.44v9.52a.2.2 0 0 1-.34.14l-2.36-2.37a1 1 0 0 1-.3-.7V9a4 4 0 0 1 4-4h2.53a.2.2 0 0 1 .14.34z" fill="#fff"/>
</svg>
