<svg width="48" height="43" viewBox="0 0 48 43" fill="none" xmlns="http://www.w3.org/2000/svg"><g clip-path="url(#clip0)"><path d="M24 25.63a4.28 4.28 0 100-8.56 4.28 4.28 0 000 8.56z" fill="#61DAFB"/><path d="M24 30.12c12.68 0 22.96-3.93 22.96-8.77S36.68 12.6 24 12.6c-12.68 0-22.96 3.92-22.96 8.76S11.32 30.12 24 30.12z" stroke="#61DAFB"/><path d="M16.4 25.74c6.35 10.98 14.89 17.91 19.08 15.5 4.19-2.43 2.45-13.29-3.89-24.27S16.71-.95 12.52 1.47c-4.2 2.42-2.45 13.29 3.89 24.27z" stroke="#61DAFB"/><path d="M16.4 16.97c-6.33 10.98-8.07 21.84-3.88 24.26 4.2 2.42 12.73-4.51 19.07-15.5 6.34-10.97 8.08-21.84 3.89-24.26C31.28-.95 22.75 6 16.4 16.97z" stroke="#61DAFB"/></g><defs><clipPath id="clip0"><path fill="#fff" d="M0 0h48v42.71H0z"/></clipPath></defs></svg>