<svg width="32" height="32" viewBox="0 0 32 32" fill="none" xmlns="http://www.w3.org/2000/svg">
  <path d="M17.96 16.32h-4.8v2.3h4.69c.27 0 .53-.11.74-.3.18-.18.3-.46.3-.8 0-.3-.09-.6-.26-.84-.18-.23-.4-.36-.67-.36zm.16-2.8c.21-.14.3-.44.3-.83 0-.35-.09-.6-.25-.76a.92.92 0 0 0-.6-.23h-4.41v2.08h4.32c.23 0 .46-.12.64-.26z" fill="#fff"/>
  <path d="M25.1 5H7.04C6.46 5 6 5.47 6 6.03v18.39c0 .56.46.9 1.01.9h2.67V29L13 25.35h12.1c.55 0 .9-.35.9-.93V6.05c0-.56-.35-1.03-.92-1.03L25.1 5zm-3.04 14.9a2.8 2.8 0 0 1-.99 1.03c-.43.28-.92.54-1.47.65a7.2 7.2 0 0 1-1.77.26H9.68V8.74h9.25c.46 0 .86.1 1.22.3.35.2.67.45.92.76.52.63.8 1.44.79 2.26 0 .61-.16 1.2-.46 1.76-.31.56-.8 1-1.38 1.26.73.21 1.3.59 1.75 1.12.41.57.62 1.3.62 2.2 0 .59-.12 1.08-.35 1.5h.02z" fill="#fff"/>
</svg>
